<svg width="30" height="31" viewBox="0 0 30 31" fill="none" xmlns="http://www.w3.org/2000/svg">
<rect x="0.5" y="1.13171" width="29" height="29" stroke="black"/>
<path d="M22.1992 4.83167H5.39922V21.0317C5.39922 22.3517 6.47922 23.4317 7.79922 23.4317H19.7992C21.1192 23.4317 22.1992 22.3517 22.1992 21.0317V18.0317C25.8448 18.0317 28.7992 15.0767 28.7992 11.4317C28.7992 7.78666 25.8448 4.83167 22.1992 4.83167ZM22.1992 15.0317V7.83166C23.154 7.83166 24.0697 8.21095 24.7448 8.88608C25.4199 9.56121 25.7992 10.4769 25.7992 11.4317C25.7992 12.3864 25.4199 13.3021 24.7448 13.9772C24.0697 14.6524 23.154 15.0317 22.1992 15.0317ZM1.19922 24.6317V26.0123C1.19922 27.1499 2.44062 27.6317 3.95922 27.6317H26.0392C27.5572 27.6317 28.7992 27.1499 28.7992 26.0123V24.6317H1.19922Z" fill="black"/>
</svg>
