<svg width="30" height="31" viewBox="0 0 30 31" fill="none" xmlns="http://www.w3.org/2000/svg">
<rect x="0.5" y="1.13171" width="29" height="29" stroke="black"/>
<path d="M25.965 13.3255L24.255 8.19547C24.0069 7.44857 23.5298 6.79884 22.8914 6.3386C22.253 5.87836 21.4858 5.63102 20.6987 5.63172H9.30125C8.51424 5.63102 7.74702 5.87836 7.10861 6.3386C6.47019 6.79884 5.99306 7.44857 5.745 8.19547L4.035 13.3255C3.58028 13.5157 3.19195 13.8362 2.91883 14.2465C2.64572 14.6569 2.5 15.1388 2.5 15.6317V21.8817C2.5 22.8042 3.005 23.6017 3.75 24.0355V26.8817C3.75 27.2132 3.8817 27.5312 4.11612 27.7656C4.35054 28 4.66848 28.1317 5 28.1317H6.25C6.58152 28.1317 6.89946 28 7.13388 27.7656C7.3683 27.5312 7.5 27.2132 7.5 26.8817V24.3817H22.5V26.8817C22.5 27.2132 22.6317 27.5312 22.8661 27.7656C23.1005 28 23.4185 28.1317 23.75 28.1317H25C25.3315 28.1317 25.6495 28 25.8839 27.7656C26.1183 27.5312 26.25 27.2132 26.25 26.8817V24.0355C26.6292 23.818 26.9445 23.5044 27.1639 23.1263C27.3834 22.7482 27.4993 22.3189 27.5 21.8817V15.6317C27.5 15.1388 27.3543 14.6569 27.0812 14.2465C26.808 13.8362 26.4197 13.5157 25.965 13.3255ZM9.30125 8.13172H20.6975C21.2362 8.13172 21.7138 8.47422 21.8838 8.98672L23.2663 13.1317H6.73375L8.115 8.98672C8.19794 8.73771 8.35715 8.52112 8.57006 8.36766C8.78298 8.2142 9.03879 8.13165 9.30125 8.13172ZM6.875 20.6317C6.62869 20.6316 6.38481 20.583 6.15728 20.4887C5.92975 20.3944 5.72303 20.2561 5.54892 20.0819C5.37481 19.9077 5.23672 19.7009 5.14253 19.4733C5.04835 19.2457 4.99992 19.0018 5 18.7555C5.00008 18.5092 5.04868 18.2653 5.14301 18.0377C5.23735 17.8102 5.37557 17.6035 5.5498 17.4294C5.72403 17.2553 5.93084 17.1172 6.15843 17.023C6.38602 16.9288 6.62994 16.8804 6.87625 16.8805C7.3737 16.8806 7.8507 17.0784 8.20233 17.4303C8.55396 17.7821 8.75142 18.2593 8.75125 18.7567C8.75108 19.2542 8.55332 19.7312 8.20145 20.0828C7.84959 20.4344 7.37245 20.6319 6.875 20.6317ZM23.125 20.6317C22.8787 20.6316 22.6348 20.583 22.4073 20.4887C22.1797 20.3944 21.973 20.2561 21.7989 20.0819C21.6248 19.9077 21.4867 19.7009 21.3925 19.4733C21.2984 19.2457 21.2499 19.0018 21.25 18.7555C21.2501 18.5092 21.2987 18.2653 21.393 18.0377C21.4873 17.8102 21.6256 17.6035 21.7998 17.4294C21.974 17.2553 22.1808 17.1172 22.4084 17.023C22.636 16.9288 22.8799 16.8804 23.1262 16.8805C23.6237 16.8806 24.1007 17.0784 24.4523 17.4303C24.804 17.7821 25.0014 18.2593 25.0012 18.7567C25.0011 19.2542 24.8033 19.7312 24.4515 20.0828C24.0996 20.4344 23.6224 20.6319 23.125 20.6317Z" fill="black"/>
</svg>
