<svg width="35" height="35" viewBox="0 0 35 35" fill="none" xmlns="http://www.w3.org/2000/svg">
<path d="M17.5874 6.14452C22.2015 6.14452 26.5958 7.59029 29.8916 10.3011C36.7028 15.9035 36.7028 25.1203 29.8916 30.7226C25.9367 34.1563 20.4437 35.4214 15.1705 34.8792L16.2691 31.2648C20.0043 31.6262 23.9592 30.5419 26.8155 28.1925C31.869 24.0359 31.869 17.1685 26.8155 12.8312C24.3986 10.8433 20.8832 9.75895 17.5874 9.75895V18.0721L6.60151 9.03606L17.5874 0V6.14452ZM5.06349 30.7226C-0.649165 26.0239 -1.52804 18.795 2.42688 13.1927L5.72264 15.9035C3.30575 19.8793 4.18462 24.9395 8.35925 28.1925C9.45784 29.0961 10.7761 29.819 12.3142 30.3612L10.9959 33.9756C8.79869 33.2527 6.82123 32.1684 5.06349 30.7226Z" fill="black"/>
</svg>
