<svg width="200" height="200" viewBox="0 0 200 200" fill="none" xmlns="http://www.w3.org/2000/svg">
<path d="M185.531 92.2312C185.956 91.7125 186.378 91.1937 186.769 90.6719C193.884 81.1188 199.328 62.5 165.566 62.5C156.113 62.5 143.903 64.6 131.216 68.0969C131.009 47.9594 121.259 30.1531 106.294 18.8719C105.856 18.5 105.434 18.1188 104.95 17.8L105.141 18.0063C94.5455 10.3618 81.8119 6.24847 68.7469 6.25C62.6625 6.25 56.8 7.1625 51.2375 8.78438L51.1594 8.7625L51.2188 8.79063C41.0125 11.7721 31.7355 17.3081 24.2656 24.875C13.1106 36.1726 6.69384 51.3087 6.32813 67.1812L6.27187 67.0719L6.32188 67.2625C6.31563 67.7563 6.25 68.2438 6.25 68.75C6.25 90.1125 16.9875 108.953 33.3375 120.228L33.2938 120.225C33.3104 120.225 33.3271 120.228 33.3438 120.234C40.1822 124.957 47.8979 128.261 56.0349 129.951C64.1719 131.641 72.5652 131.684 80.7188 130.075L80.7156 130.078C88.9437 140.228 93.6813 149.537 96.2031 157.6C90.6177 163.958 84.4699 169.798 77.8344 175.05C76.3094 176.272 76.125 178.413 77.4375 179.834C78.75 181.262 81.05 181.434 82.5813 180.206C88.0986 175.823 93.3069 171.063 98.1687 165.963C100.325 179.694 96.2937 188.281 95.9844 188.913C95.2812 190.306 95.6719 191.969 96.9437 192.956C97.5765 193.442 98.3441 193.719 99.141 193.75C99.9378 193.782 100.725 193.565 101.394 193.131C111.775 186.322 120.503 179.647 127.881 173.188C129.881 183.162 128.422 189.403 128.384 189.544C128.025 190.9 128.591 192.316 129.812 193.125C130.424 193.519 131.133 193.735 131.86 193.749C132.587 193.762 133.303 193.572 133.928 193.2C142.859 187.785 150.8 182.305 157.75 176.759C158.341 184.231 157.019 188.887 156.859 189.413C156.297 191.209 157.409 193.088 159.344 193.616C159.681 193.705 160.022 193.75 160.366 193.75C161.941 193.75 163.4 192.791 163.863 191.309C164.078 190.625 166.334 182.959 164.356 171.169C166.962 168.866 169.479 166.465 171.903 163.972C171.959 164.722 172.231 165.469 172.828 166.059C173.517 166.719 174.425 167.099 175.378 167.128C176.331 167.156 177.261 166.83 177.988 166.212C178.153 166.066 187.337 157.722 187.397 142.922C190.322 137.218 192.24 131.478 193.15 125.703C195.837 108.706 188.784 96.7094 185.531 92.2312ZM165.566 72.0906C180.462 72.0906 178.228 76.9781 173.859 82.1156C164.419 93.2219 138.578 105.438 115.194 110.472C123.231 101.544 128.51 90.4796 130.394 78.6156C143.222 74.6594 155.984 72.0906 165.566 72.0906ZM159.144 111.809C158.309 117.822 155.863 126.806 149.247 137.734C145.391 132.562 140.631 127.2 134.788 121.731C143.206 119.053 151.537 115.691 159.144 111.809ZM115.684 126.597C115.081 128.106 114.366 129.753 113.541 131.5C112.354 130.163 111.139 128.851 109.897 127.566C111.833 127.284 113.762 126.961 115.684 126.597ZM100.291 115.297C96.8805 113.932 93.6367 112.183 90.6219 110.084L90.6031 110.066C91.1656 109.722 91.7469 109.412 92.2969 109.047C94.5961 107.468 96.7674 105.71 98.7906 103.791C99.4135 104.222 100.072 104.606 100.766 104.944C104.016 106.431 107.456 106.603 110.731 106.053C107.648 109.555 104.141 112.661 100.291 115.297ZM124.997 68.75C124.997 82.5719 119.966 95.2281 111.659 105.031C108.119 105.281 104.628 104.856 101.8 103.019C101.366 102.741 100.945 102.441 100.541 102.122C102.786 99.8294 104.824 97.3426 106.631 94.6906C114.213 83.3094 117.259 69.5312 116.8 56.2437C116.609 49.5786 115.491 42.9726 113.478 36.6156C113.062 35.3687 112.581 34.1469 112.088 32.9312C120.44 42.998 125.007 55.6696 124.997 68.75ZM68.7469 12.5C84.5938 12.5 98.9031 19.1125 109.137 29.6906C110.072 32.1438 110.781 34.6906 111.381 37.2031C112.834 43.4562 113.4 49.8937 113.312 56.2719C113.056 68.9906 109.944 81.7938 102.903 92.1938C101.318 94.5913 99.5203 96.841 97.5312 98.9156C95.8531 96.5844 94.6312 93.825 93.6469 91.0438C92.0219 86.2406 90.8781 81.1875 89.8969 76.0781L86.8656 60.6437C84.6219 50.3688 81.9313 39.8594 76.4688 30.4625C73.7594 25.7875 70.2812 21.4844 66.0375 18.125C63.6238 16.2849 60.9989 14.7396 58.2187 13.5219C61.6882 12.8513 65.2132 12.5092 68.7469 12.5ZM56.6969 13.8344C64.0781 18.0906 69.7375 24.6594 73.3938 32.1344C77.9187 41.2781 80.3469 51.3969 82.4812 61.575C84.7594 71.7344 86.2906 82.2344 90.3938 92.3031C91.6406 95.275 93.2719 98.3469 95.525 100.878C92.9025 103.336 90.0426 105.528 86.9875 107.422C84.1237 105.3 81.3544 103.053 78.6875 100.688C71.1656 93.8781 64.2188 86.4094 57.7438 78.5625C51.2179 70.7398 45.1474 62.5481 39.5625 54.0281C36.7937 49.7531 34.125 45.4094 31.7469 40.9C30.0031 37.6969 28.4375 34.3969 27.2125 30.95C35.0335 22.3321 45.3348 16.3522 56.6969 13.8344ZM12.5 68.75C12.5 54.5125 17.8594 41.5344 26.6094 31.6156C27.3406 35.0906 28.5219 38.4906 29.7563 41.8187C31.7186 46.6359 33.9954 51.3189 36.5719 55.8375C41.6719 64.9 47.6937 73.4 54.2906 81.425C60.9594 89.3812 68.2188 96.9062 76.4313 103.366C78.9604 105.366 81.5917 107.23 84.325 108.959C80.697 110.958 76.8766 112.585 72.9219 113.816C72.8552 113.836 72.7896 113.854 72.725 113.869C70.2156 112.222 67.5312 110.891 64.8406 109.731C57.1219 106.428 49.2594 104.081 41.9719 100.653C34.6406 97.3562 27.8906 92.9969 22.2781 87.2969C18.6281 83.6 15.5531 79.3313 12.8344 74.7719C12.6153 72.772 12.5037 70.7618 12.5 68.75ZM13.8219 80.7656C15.4781 83.8875 17.3844 86.8969 19.6938 89.6375C25.1437 96.2438 32.4312 101.191 40.0938 104.725C47.8031 108.253 55.875 110.45 63.575 112.994C65.3438 113.606 67.0969 114.244 68.8062 114.966C60.0906 117.181 50.9719 118.028 41.8031 118.106C34.7464 114.237 28.5988 108.903 23.7728 102.463C18.9468 96.0228 15.5539 88.6249 13.8219 80.7656ZM68.7469 125C59.925 125 51.6031 122.9 44.1625 119.263C53.875 120.122 63.7781 119.737 73.4219 117.281C73.775 117.494 74.1469 117.684 74.4969 117.912C76.859 119.413 78.8616 121.416 80.3625 123.778C76.6125 124.572 72.7281 125 68.7469 125ZM76.1875 116.491C80.4471 115.248 84.554 113.532 88.4313 111.375C88.7938 111.572 89.1469 111.784 89.5062 111.972C92.6906 113.547 96.025 114.944 99.4625 115.813C93.8667 119.477 87.6591 122.108 81.1344 123.581C80.0542 120.868 78.3611 118.441 76.1875 116.491ZM88.5625 128.484C90.6937 128.626 92.9917 128.697 95.4562 128.697C97.1854 128.697 98.9708 128.637 100.812 128.519C104.052 131.615 107.118 134.888 109.997 138.322C107.479 142.752 104.663 147.005 101.569 151.053C98.875 144.125 94.75 136.547 88.5625 128.484ZM105.466 181.931C106.363 176.328 106.559 168.562 104.197 159.228C108.086 154.584 111.624 149.657 114.781 144.488C120.287 152.175 123.731 159.312 125.828 165.531C120.062 170.838 113.35 176.319 105.466 181.931ZM131.653 159.906C128.984 153.153 124.881 145.619 118.65 137.609C120.804 133.463 122.644 129.161 124.156 124.741C125.067 124.516 125.978 124.282 126.891 124.041C134.709 130.981 140.631 137.725 145.062 144.084C141.519 149.062 137.113 154.362 131.653 159.906ZM136.319 183.522C136.381 179.469 135.947 173.969 134.169 167.431C140.228 161.609 145.194 156.003 149.241 150.688C153.031 157.347 155.25 163.456 156.484 168.759C150.616 173.707 143.894 178.628 136.319 183.522ZM162.528 163.344C160.803 157.581 158.034 151.169 153.753 144.312C162.672 130.781 165.688 119.562 166.569 112.134C176.281 123.759 179.738 133.459 180.216 141.094C176.228 148.541 170.322 155.969 162.528 163.344ZM185.9 124.891C185.669 126.334 185.337 127.778 184.959 129.219C182.494 122.162 177.897 114.216 170.144 105.466C173.803 103.094 177.265 100.431 180.497 97.5031C183.397 102.009 188.044 111.637 185.9 124.891Z" fill="#73787D"/>
<path d="M118.913 105.922L118.895 105.947L119.016 105.9L118.913 105.922Z" fill="#73787D"/>
</svg>
