<svg width="151" height="151" viewBox="0 0 151 151" fill="none" xmlns="http://www.w3.org/2000/svg">
<path d="M121.087 23.7262H28.7797C21.1327 23.7262 14.9336 29.8823 14.9336 37.4762V119.976C14.9336 127.57 21.1327 133.726 28.7797 133.726H121.087C128.734 133.726 134.934 127.57 134.934 119.976V37.4762C134.934 29.8823 128.734 23.7262 121.087 23.7262Z" stroke="#24587D" stroke-width="9.23954" stroke-linejoin="round"/>
<path d="M87.5898 75.2888C91.4731 75.2888 94.6211 72.1408 94.6211 68.2575C94.6211 64.3743 91.4731 61.2263 87.5898 61.2263C83.7066 61.2263 80.5586 64.3743 80.5586 68.2575C80.5586 72.1408 83.7066 75.2888 87.5898 75.2888Z" fill="#24587D"/>
<path d="M111.027 75.2888C114.911 75.2888 118.059 72.1408 118.059 68.2575C118.059 64.3743 114.911 61.2263 111.027 61.2263C107.144 61.2263 103.996 64.3743 103.996 68.2575C103.996 72.1408 107.144 75.2888 111.027 75.2888Z" fill="#24587D"/>
<path d="M87.5898 98.7262C91.4731 98.7262 94.6211 95.5782 94.6211 91.6949C94.6211 87.8117 91.4731 84.6637 87.5898 84.6637C83.7066 84.6637 80.5586 87.8117 80.5586 91.6949C80.5586 95.5782 83.7066 98.7262 87.5898 98.7262Z" fill="#24587D"/>
<path d="M111.027 98.7262C114.911 98.7262 118.059 95.5782 118.059 91.6949C118.059 87.8117 114.911 84.6637 111.027 84.6637C107.144 84.6637 103.996 87.8117 103.996 91.6949C103.996 95.5782 107.144 98.7262 111.027 98.7262Z" fill="#24587D"/>
<path d="M40.7148 98.7262C44.5981 98.7262 47.7461 95.5782 47.7461 91.6949C47.7461 87.8117 44.5981 84.6637 40.7148 84.6637C36.8316 84.6637 33.6836 87.8117 33.6836 91.6949C33.6836 95.5782 36.8316 98.7262 40.7148 98.7262Z" fill="#24587D"/>
<path d="M64.1523 98.7262C68.0356 98.7262 71.1836 95.5782 71.1836 91.6949C71.1836 87.8117 68.0356 84.6637 64.1523 84.6637C60.2691 84.6637 57.1211 87.8117 57.1211 91.6949C57.1211 95.5782 60.2691 98.7262 64.1523 98.7262Z" fill="#24587D"/>
<path d="M40.7148 122.164C44.5981 122.164 47.7461 119.016 47.7461 115.133C47.7461 111.249 44.5981 108.101 40.7148 108.101C36.8316 108.101 33.6836 111.249 33.6836 115.133C33.6836 119.016 36.8316 122.164 40.7148 122.164Z" fill="#24587D"/>
<path d="M64.1523 122.164C68.0356 122.164 71.1836 119.016 71.1836 115.133C71.1836 111.249 68.0356 108.101 64.1523 108.101C60.2691 108.101 57.1211 111.249 57.1211 115.133C57.1211 119.016 60.2691 122.164 64.1523 122.164Z" fill="#24587D"/>
<path d="M87.5898 122.164C91.4731 122.164 94.6211 119.016 94.6211 115.133C94.6211 111.249 91.4731 108.101 87.5898 108.101C83.7066 108.101 80.5586 111.249 80.5586 115.133C80.5586 119.016 83.7066 122.164 87.5898 122.164Z" fill="#24587D"/>
<path d="M38.3711 14.3513V23.7263M113.371 14.3513V23.7263" stroke="#24587D" stroke-width="9.23954" stroke-linecap="round" stroke-linejoin="round"/>
<path d="M136.809 47.1638H14.9336" stroke="#24587D" stroke-width="9.23954" stroke-linejoin="round"/>
</svg>
