<svg width="220" height="220" viewBox="0 0 220 220" fill="none" xmlns="http://www.w3.org/2000/svg">
<path fill-rule="evenodd" clip-rule="evenodd" d="M39.4594 169.524C24.3848 152.982 15.2182 131.147 15.2182 107.204C15.2182 55.5775 57.8294 13.7271 110.391 13.7271C162.953 13.7271 205.564 55.5821 205.564 107.204C205.564 143.71 184.251 175.312 153.19 190.703C133.52 200.938 111.665 206.264 89.4911 206.227C61.2944 206.227 35.0961 197.798 13.3711 183.37C13.3711 183.37 27.9415 181.78 39.4503 169.519L39.4594 169.524ZM155.097 153.473C179.723 128.856 179.723 88.9396 155.097 64.3133C144.146 53.3297 129.518 46.7877 114.03 45.9479C113.581 34.7325 119.617 27.1608 119.645 27.1241V27.1196C101.873 30.5432 85.5411 39.2283 72.7665 52.0483C62.897 61.8841 55.4378 73.8706 50.9728 87.0695C51.6053 85.389 52.3126 83.7329 53.0948 82.1012C52.1996 84.3929 51.3853 86.7334 50.6519 89.1229C43.4423 111.013 48.5298 136.065 65.9373 153.473C90.559 178.095 130.475 178.095 155.097 153.473Z" fill="white"/>
<path fill-rule="evenodd" clip-rule="evenodd" d="M78.5156 102.414V115.463C78.5156 117.964 79.5089 120.362 81.277 122.13C83.0451 123.898 85.4431 124.891 87.9435 124.891C90.444 124.891 92.842 123.898 94.6101 122.13C96.3782 120.362 97.3715 117.964 97.3715 115.463V102.414C97.3715 99.914 96.3782 97.516 94.6101 95.7479C92.842 93.9799 90.444 92.9866 87.9435 92.9866C85.4431 92.9866 83.0451 93.9799 81.277 95.7479C79.5089 97.516 78.5156 99.914 78.5156 102.414ZM125.188 102.414V115.463C125.188 117.964 126.181 120.362 127.949 122.13C129.717 123.898 132.115 124.891 134.616 124.891C137.116 124.891 139.514 123.898 141.282 122.13C143.05 120.362 144.044 117.964 144.044 115.463V102.414C144.044 99.914 143.05 97.516 141.282 95.7479C139.514 93.9799 137.116 92.9866 134.616 92.9866C132.115 92.9866 129.717 93.9799 127.949 95.7479C126.181 97.516 125.188 99.914 125.188 102.414Z" fill="white"/>
</svg>
