<svg width="120" height="105" viewBox="0 0 120 105" fill="none" xmlns="http://www.w3.org/2000/svg">
<path d="M18 38.5074C18 28.2946 22.425 18.5001 30.3015 11.2786C38.178 4.05702 48.8609 0 60 0C71.1391 0 81.822 4.05702 89.6985 11.2786C97.575 18.5001 102 28.2946 102 38.5074V44.201C112.176 45.5377 120 53.5638 120 63.2621V64.6374C120 74.4018 110.814 82.9614 100.008 82.5048C95.568 94.1671 84.276 102.028 72.09 104.019C69.27 104.966 65.934 104.52 63 104.52C60.6131 104.52 58.3239 103.651 56.636 102.103C54.9482 100.556 54 98.4569 54 96.2685C54 94.08 54.9482 91.9812 56.636 90.4337C58.3239 88.8862 60.6131 88.0169 63 88.0169C67.758 88.0169 73.026 87.3843 76.242 91.367C84.018 87.9729 90 80.805 90 71.5137V38.5074C90 31.2125 86.8393 24.2165 81.2132 19.0582C75.5871 13.9 67.9565 11.0021 60 11.0021C52.0435 11.0021 44.4129 13.9 38.7868 19.0582C33.1607 24.2165 30 31.2125 30 38.5074V72.889C30 75.4422 28.8938 77.8908 26.9246 79.6962C24.9555 81.5016 22.2848 82.5158 19.5 82.5158C14.3283 82.5158 9.36838 80.6322 5.71142 77.2794C2.05446 73.9265 6.92457e-07 69.3791 6.92457e-07 64.6374V63.2621C-0.00129571 58.6314 1.81776 54.1554 5.12373 50.6546C8.4297 47.1537 13.0011 44.8625 18 44.201V38.5074Z" fill="#24587D"/>
</svg>
