<svg width="120" height="120" viewBox="0 0 120 120" fill="none" xmlns="http://www.w3.org/2000/svg">
<path d="M59.9995 53.2667C68.7624 53.2667 75.8661 46.2525 75.8661 37.6C75.8661 28.9476 68.7624 21.9333 59.9995 21.9333C51.2366 21.9333 44.1328 28.9476 44.1328 37.6C44.1328 46.2525 51.2366 53.2667 59.9995 53.2667Z" fill="#24587D"/>
<path d="M35.9347 39.1666H37.5347V37.7333C37.5444 33.5653 38.7203 29.4832 40.9293 25.9487C43.1384 22.4142 46.2924 19.5685 50.0347 17.7333C48.9268 15.1819 47.1486 12.9781 44.8888 11.3561C42.6291 9.73411 39.9722 8.75445 37.2004 8.52117C34.4286 8.2879 31.6453 8.80972 29.1463 10.0312C26.6472 11.2527 24.5256 13.1283 23.0069 15.4587C21.4882 17.7891 20.629 20.4873 20.5206 23.2668C20.4122 26.0463 21.0586 28.8033 22.3913 31.2449C23.7239 33.6865 25.693 35.7216 28.0893 37.134C30.4857 38.5464 33.2198 39.2833 36.0014 39.2666L35.9347 39.1666ZM82.5347 37.6V39.0333H84.1347C86.8792 39.0058 89.5656 38.2388 91.9109 36.8133C94.2563 35.3877 96.1741 33.3562 97.4622 30.9327C98.7504 28.5091 99.3614 25.783 99.2309 23.0415C99.1004 20.2999 98.2332 17.6443 96.7206 15.354C95.2081 13.0638 93.1061 11.2236 90.6358 10.0273C88.1656 8.83098 85.4186 8.32271 82.6839 8.55599C79.9492 8.78928 77.3279 9.75549 75.096 11.3529C72.8641 12.9504 71.1042 15.12 70.0014 17.6333C73.7448 19.4613 76.9023 22.2999 79.1171 25.8282C81.3319 29.3566 82.5157 33.4341 82.5347 37.6ZM74.3014 54.8333C80.9283 56.1473 87.3362 58.3917 93.3347 61.5C94.18 61.9637 94.9453 62.5602 95.6014 63.2666H113.335V51.8666C113.338 51.4294 113.222 50.9996 112.998 50.6236C112.775 50.2476 112.453 49.9398 112.068 49.7333C103.429 45.2144 93.8179 42.8689 84.068 42.9H81.868C80.7128 47.5957 78.056 51.7858 74.3014 54.8333ZM21.768 69.7333C21.7619 68.0546 22.2153 66.4061 23.079 64.9666C23.9428 63.527 25.1839 62.3513 26.668 61.5666C32.6665 58.4584 39.0744 56.214 45.7014 54.9C41.9649 51.8784 39.3098 47.7261 38.1347 43.0666H35.9347C26.1848 43.0356 16.5742 45.381 7.9347 49.9C7.54926 50.1064 7.22755 50.4143 7.00432 50.7903C6.78108 51.1662 6.6648 51.5961 6.66803 52.0333V73.3333H21.768V69.7333ZM71.5347 88.9667H91.4014V93.6333H71.5347V88.9667Z" fill="#24587D"/>
<path d="M109.367 70.8666H86.467V67.5333C86.467 66.6492 86.1158 65.8014 85.4907 65.1763C84.8656 64.5512 84.0177 64.2 83.1337 64.2C82.2496 64.2 81.4018 64.5512 80.7766 65.1763C80.1515 65.8014 79.8003 66.6492 79.8003 67.5333V70.8666H73.3337V61.4333C68.9487 60.5086 64.4816 60.0284 60.0003 60C49.48 59.9602 39.1105 62.5011 29.8003 67.4C29.3857 67.6151 29.0386 67.9406 28.7974 68.3406C28.5562 68.7406 28.4304 69.1995 28.4337 69.6666V88.3666H52.1337V108.667C52.1337 109.551 52.4848 110.399 53.11 111.024C53.7351 111.649 54.5829 112 55.467 112H109.367C110.251 112 111.099 111.649 111.724 111.024C112.349 110.399 112.7 109.551 112.7 108.667V74.2C112.7 73.3159 112.349 72.4681 111.724 71.8429C111.099 71.2178 110.251 70.8666 109.367 70.8666ZM106.034 105.4H58.8003V77.5333H79.8003V80.5666C79.8003 81.4507 80.1515 82.2985 80.7766 82.9237C81.4018 83.5488 82.2496 83.9 83.1337 83.9C84.0177 83.9 84.8656 83.5488 85.4907 82.9237C86.1158 82.2985 86.467 81.4507 86.467 80.5666V77.5333H106.034V105.4Z" fill="#24587D"/>
</svg>
