<svg width="180" height="180" viewBox="0 0 180 180" fill="none" xmlns="http://www.w3.org/2000/svg">
<g clip-path="url(#clip0_1216_5636)">
<path d="M180 90C180 40.2947 139.705 0 90 0C40.2947 0 0 40.2947 0 90C0 134.921 32.9119 172.155 75.9375 178.907V116.016H53.0859V90H75.9375V70.1719C75.9375 47.6156 89.3742 35.1562 109.932 35.1562C119.779 35.1562 130.078 36.9141 130.078 36.9141V59.0625H118.73C107.549 59.0625 104.062 66.0002 104.062 73.118V90H129.023L125.033 116.016H104.062V178.907C147.088 172.155 180 134.922 180 90Z" fill="#1877F2"/>
<path d="M125.033 116.016L129.023 90H104.062V73.118C104.062 65.9995 107.549 59.0625 118.73 59.0625H130.078V36.9141C130.078 36.9141 119.779 35.1562 109.931 35.1562C89.3742 35.1562 75.9375 47.6156 75.9375 70.1719V90H53.0859V116.016H75.9375V178.907C80.5895 179.636 85.2912 180.001 90 180C94.7088 180.001 99.4105 179.636 104.062 178.907V116.016H125.033Z" fill="white"/>
</g>
<defs>
<clipPath id="clip0_1216_5636">
<rect width="180" height="180" fill="white"/>
</clipPath>
</defs>
</svg>
