<svg width="519" height="666" viewBox="0 0 519 666" fill="none" xmlns="http://www.w3.org/2000/svg">
<rect x="1" y="1" width="517" height="664" rx="19" fill="white" stroke="url(#paint0_linear_1715_9653)" stroke-width="2"/>
<rect x="40.5" y="42.5" width="439" height="44" rx="19.5" fill="white" stroke="black"/>
<path d="M61.9277 56.7812V71H59.0078V56.7812H61.9277ZM66.3027 56.7812V59.0762H54.7012V56.7812H66.3027ZM71.7422 71.1953C70.9219 71.1953 70.1862 71.0651 69.5352 70.8047C68.8841 70.5378 68.3307 70.1699 67.875 69.7012C67.4258 69.2324 67.0807 68.6888 66.8398 68.0703C66.599 67.4453 66.4785 66.7812 66.4785 66.0781V65.6875C66.4785 64.8867 66.5924 64.1543 66.8203 63.4902C67.0482 62.8262 67.3737 62.25 67.7969 61.7617C68.2266 61.2734 68.7474 60.8991 69.3594 60.6387C69.9714 60.3717 70.6615 60.2383 71.4297 60.2383C72.1784 60.2383 72.8424 60.362 73.4219 60.6094C74.0013 60.8568 74.4863 61.2083 74.877 61.6641C75.2741 62.1198 75.5736 62.6667 75.7754 63.3047C75.9772 63.9362 76.0781 64.6393 76.0781 65.4141V66.5859H67.6797V64.7109H73.3145V64.4961C73.3145 64.1055 73.2428 63.7572 73.0996 63.4512C72.9629 63.1387 72.7546 62.8913 72.4746 62.709C72.1947 62.5267 71.8366 62.4355 71.4004 62.4355C71.0293 62.4355 70.7103 62.5169 70.4434 62.6797C70.1764 62.8424 69.9583 63.0703 69.7891 63.3633C69.6263 63.6562 69.5026 64.0013 69.418 64.3984C69.3398 64.7891 69.3008 65.2188 69.3008 65.6875V66.0781C69.3008 66.5013 69.3594 66.8919 69.4766 67.25C69.6003 67.6081 69.7728 67.9173 69.9941 68.1777C70.222 68.4382 70.4954 68.64 70.8145 68.7832C71.14 68.9264 71.5078 68.998 71.918 68.998C72.4258 68.998 72.8978 68.9004 73.334 68.7051C73.7767 68.5033 74.1576 68.2005 74.4766 67.7969L75.8438 69.2812C75.6224 69.6003 75.3197 69.9062 74.9355 70.1992C74.5579 70.4922 74.1022 70.7331 73.5684 70.9219C73.0345 71.1042 72.4258 71.1953 71.7422 71.1953ZM71.918 55.9902L74.8672 58.7051V58.8223H72.6309L71.0977 57.3965L69.584 58.8223H67.3867V58.6758L70.2871 55.9902H71.918ZM80.4336 62.6895V71H77.6211V60.4336H80.2578L80.4336 62.6895ZM80.0234 65.3457H79.2617C79.2617 64.5645 79.3626 63.8613 79.5645 63.2363C79.7663 62.6048 80.0495 62.0677 80.4141 61.625C80.7786 61.1758 81.2116 60.834 81.7129 60.5996C82.2207 60.3587 82.7871 60.2383 83.4121 60.2383C83.9069 60.2383 84.3594 60.3099 84.7695 60.4531C85.1797 60.5964 85.5312 60.8242 85.8242 61.1367C86.1237 61.4492 86.3516 61.8626 86.5078 62.377C86.6706 62.8913 86.752 63.5195 86.752 64.2617V71H83.9199V64.252C83.9199 63.7832 83.8548 63.4186 83.7246 63.1582C83.5944 62.8978 83.4023 62.7155 83.1484 62.6113C82.901 62.5007 82.5951 62.4453 82.2305 62.4453C81.8529 62.4453 81.5241 62.5202 81.2441 62.6699C80.9707 62.8197 80.7428 63.028 80.5605 63.2949C80.3848 63.5553 80.2513 63.8613 80.1602 64.2129C80.069 64.5645 80.0234 64.9421 80.0234 65.3457ZM88.998 69.6426C88.998 69.2259 89.1413 68.8776 89.4277 68.5977C89.7207 68.3177 90.1081 68.1777 90.5898 68.1777C91.0716 68.1777 91.4557 68.3177 91.7422 68.5977C92.0352 68.8776 92.1816 69.2259 92.1816 69.6426C92.1816 70.0592 92.0352 70.4076 91.7422 70.6875C91.4557 70.9674 91.0716 71.1074 90.5898 71.1074C90.1081 71.1074 89.7207 70.9674 89.4277 70.6875C89.1413 70.4076 88.998 70.0592 88.998 69.6426ZM88.998 61.5859C88.998 61.1693 89.1413 60.821 89.4277 60.541C89.7207 60.2611 90.1081 60.1211 90.5898 60.1211C91.0716 60.1211 91.4557 60.2611 91.7422 60.541C92.0352 60.821 92.1816 61.1693 92.1816 61.5859C92.1816 62.0026 92.0352 62.3509 91.7422 62.6309C91.4557 62.9108 91.0716 63.0508 90.5898 63.0508C90.1081 63.0508 89.7207 62.9108 89.4277 62.6309C89.1413 62.3509 88.998 62.0026 88.998 61.5859Z" fill="black"/>
<rect x="40.5" y="116.5" width="439" height="44" rx="19.5" fill="white" stroke="black"/>
<path d="M62.9727 141.279C62.9727 141.025 62.9336 140.798 62.8555 140.596C62.7839 140.387 62.6471 140.199 62.4453 140.029C62.2435 139.854 61.9603 139.681 61.5957 139.512C61.2311 139.342 60.7591 139.167 60.1797 138.984C59.5352 138.776 58.9232 138.542 58.3438 138.281C57.7708 138.021 57.263 137.718 56.8203 137.373C56.3841 137.021 56.0391 136.615 55.7852 136.152C55.5378 135.69 55.4141 135.153 55.4141 134.541C55.4141 133.949 55.5443 133.411 55.8047 132.93C56.0651 132.441 56.4297 132.025 56.8984 131.68C57.3672 131.328 57.9206 131.058 58.5586 130.869C59.2031 130.68 59.9095 130.586 60.6777 130.586C61.7259 130.586 62.6406 130.775 63.4219 131.152C64.2031 131.53 64.8086 132.048 65.2383 132.705C65.6745 133.363 65.8926 134.115 65.8926 134.961H62.9824C62.9824 134.544 62.8945 134.18 62.7188 133.867C62.5495 133.548 62.2891 133.298 61.9375 133.115C61.5924 132.933 61.1562 132.842 60.6289 132.842C60.1211 132.842 59.6979 132.92 59.3594 133.076C59.0208 133.226 58.7669 133.431 58.5977 133.691C58.4284 133.945 58.3438 134.232 58.3438 134.551C58.3438 134.792 58.4023 135.01 58.5195 135.205C58.6432 135.4 58.8255 135.583 59.0664 135.752C59.3073 135.921 59.6035 136.081 59.9551 136.23C60.3066 136.38 60.7135 136.527 61.1758 136.67C61.9505 136.904 62.6309 137.168 63.2168 137.461C63.8092 137.754 64.304 138.083 64.7012 138.447C65.0983 138.812 65.3978 139.225 65.5996 139.688C65.8014 140.15 65.9023 140.674 65.9023 141.26C65.9023 141.878 65.7819 142.432 65.541 142.92C65.3001 143.408 64.9518 143.822 64.4961 144.16C64.0404 144.499 63.4967 144.756 62.8652 144.932C62.2337 145.107 61.5273 145.195 60.7461 145.195C60.043 145.195 59.3496 145.104 58.666 144.922C57.9824 144.733 57.3607 144.45 56.8008 144.072C56.2474 143.695 55.8047 143.213 55.4727 142.627C55.1406 142.041 54.9746 141.348 54.9746 140.547H57.9141C57.9141 140.99 57.9824 141.364 58.1191 141.67C58.2559 141.976 58.4479 142.223 58.6953 142.412C58.9492 142.601 59.2487 142.738 59.5938 142.822C59.9453 142.907 60.3294 142.949 60.7461 142.949C61.2539 142.949 61.6706 142.878 61.9961 142.734C62.3281 142.591 62.5723 142.393 62.7285 142.139C62.8913 141.885 62.9727 141.598 62.9727 141.279ZM67.2695 139.824V139.619C67.2695 138.844 67.3802 138.132 67.6016 137.48C67.8229 136.823 68.1452 136.253 68.5684 135.771C68.9915 135.29 69.5124 134.915 70.1309 134.648C70.7493 134.375 71.459 134.238 72.2598 134.238C73.0605 134.238 73.7734 134.375 74.3984 134.648C75.0234 134.915 75.5475 135.29 75.9707 135.771C76.4004 136.253 76.7259 136.823 76.9473 137.48C77.1686 138.132 77.2793 138.844 77.2793 139.619V139.824C77.2793 140.592 77.1686 141.305 76.9473 141.963C76.7259 142.614 76.4004 143.184 75.9707 143.672C75.5475 144.154 75.0267 144.528 74.4082 144.795C73.7897 145.062 73.0801 145.195 72.2793 145.195C71.4785 145.195 70.7656 145.062 70.1406 144.795C69.5221 144.528 68.998 144.154 68.5684 143.672C68.1452 143.184 67.8229 142.614 67.6016 141.963C67.3802 141.305 67.2695 140.592 67.2695 139.824ZM70.082 139.619V139.824C70.082 140.267 70.1211 140.68 70.1992 141.064C70.2773 141.449 70.401 141.787 70.5703 142.08C70.7461 142.367 70.974 142.591 71.2539 142.754C71.5339 142.917 71.8757 142.998 72.2793 142.998C72.6699 142.998 73.0052 142.917 73.2852 142.754C73.5651 142.591 73.7897 142.367 73.959 142.08C74.1283 141.787 74.252 141.449 74.3301 141.064C74.4147 140.68 74.457 140.267 74.457 139.824V139.619C74.457 139.189 74.4147 138.786 74.3301 138.408C74.252 138.024 74.125 137.686 73.9492 137.393C73.7799 137.093 73.5553 136.859 73.2754 136.689C72.9954 136.52 72.6569 136.436 72.2598 136.436C71.8626 136.436 71.5241 136.52 71.2441 136.689C70.9707 136.859 70.7461 137.093 70.5703 137.393C70.401 137.686 70.2773 138.024 70.1992 138.408C70.1211 138.786 70.082 139.189 70.082 139.619ZM68.6758 133.027L71.4395 130.762H73.002L75.7754 133.027H73.7051L72.2207 131.768L70.7363 133.027H68.6758ZM75.0625 131.689L76.6641 129.062H78.8809L76.6641 131.689H75.0625ZM90.2285 142.695V130H93.0605V145H90.5117L90.2285 142.695ZM83.5488 139.844V139.639C83.5488 138.831 83.64 138.099 83.8223 137.441C84.0046 136.777 84.2715 136.208 84.623 135.732C84.9746 135.257 85.4076 134.889 85.9219 134.629C86.4362 134.368 87.0221 134.238 87.6797 134.238C88.2982 134.238 88.8385 134.368 89.3008 134.629C89.7695 134.889 90.1667 135.26 90.4922 135.742C90.8242 136.217 91.0911 136.781 91.293 137.432C91.4948 138.076 91.6413 138.783 91.7324 139.551V140C91.6413 140.736 91.4948 141.419 91.293 142.051C91.0911 142.682 90.8242 143.236 90.4922 143.711C90.1667 144.18 89.7695 144.544 89.3008 144.805C88.832 145.065 88.2852 145.195 87.6602 145.195C87.0026 145.195 86.4167 145.062 85.9023 144.795C85.3945 144.528 84.9648 144.154 84.6133 143.672C84.2682 143.19 84.0046 142.624 83.8223 141.973C83.64 141.322 83.5488 140.612 83.5488 139.844ZM86.3613 139.639V139.844C86.3613 140.28 86.3939 140.687 86.459 141.064C86.5306 141.442 86.6445 141.777 86.8008 142.07C86.9635 142.357 87.1719 142.581 87.4258 142.744C87.6862 142.9 88.002 142.979 88.373 142.979C88.8548 142.979 89.252 142.871 89.5645 142.656C89.877 142.435 90.1146 142.132 90.2773 141.748C90.4466 141.364 90.5443 140.921 90.5703 140.42V139.141C90.5508 138.73 90.4922 138.363 90.3945 138.037C90.3034 137.705 90.1667 137.422 89.9844 137.188C89.8086 136.953 89.5872 136.771 89.3203 136.641C89.0599 136.51 88.7507 136.445 88.3926 136.445C88.028 136.445 87.7155 136.53 87.4551 136.699C87.1947 136.862 86.9831 137.087 86.8203 137.373C86.6641 137.66 86.5469 137.998 86.4688 138.389C86.3971 138.773 86.3613 139.189 86.3613 139.639ZM94.5742 131.338V133.076H87.7383V131.338H94.5742ZM99.5547 134.434V145H96.7324V134.434H99.5547ZM96.5566 131.68C96.5566 131.27 96.6999 130.931 96.9863 130.664C97.2728 130.397 97.6569 130.264 98.1387 130.264C98.6139 130.264 98.9948 130.397 99.2812 130.664C99.5742 130.931 99.7207 131.27 99.7207 131.68C99.7207 132.09 99.5742 132.428 99.2812 132.695C98.9948 132.962 98.6139 133.096 98.1387 133.096C97.6569 133.096 97.2728 132.962 96.9863 132.695C96.6999 132.428 96.5566 132.09 96.5566 131.68ZM106.742 145.195C105.922 145.195 105.186 145.065 104.535 144.805C103.884 144.538 103.331 144.17 102.875 143.701C102.426 143.232 102.081 142.689 101.84 142.07C101.599 141.445 101.479 140.781 101.479 140.078V139.688C101.479 138.887 101.592 138.154 101.82 137.49C102.048 136.826 102.374 136.25 102.797 135.762C103.227 135.273 103.747 134.899 104.359 134.639C104.971 134.372 105.661 134.238 106.43 134.238C107.178 134.238 107.842 134.362 108.422 134.609C109.001 134.857 109.486 135.208 109.877 135.664C110.274 136.12 110.574 136.667 110.775 137.305C110.977 137.936 111.078 138.639 111.078 139.414V140.586H102.68V138.711H108.314V138.496C108.314 138.105 108.243 137.757 108.1 137.451C107.963 137.139 107.755 136.891 107.475 136.709C107.195 136.527 106.837 136.436 106.4 136.436C106.029 136.436 105.71 136.517 105.443 136.68C105.176 136.842 104.958 137.07 104.789 137.363C104.626 137.656 104.503 138.001 104.418 138.398C104.34 138.789 104.301 139.219 104.301 139.688V140.078C104.301 140.501 104.359 140.892 104.477 141.25C104.6 141.608 104.773 141.917 104.994 142.178C105.222 142.438 105.495 142.64 105.814 142.783C106.14 142.926 106.508 142.998 106.918 142.998C107.426 142.998 107.898 142.9 108.334 142.705C108.777 142.503 109.158 142.201 109.477 141.797L110.844 143.281C110.622 143.6 110.32 143.906 109.936 144.199C109.558 144.492 109.102 144.733 108.568 144.922C108.035 145.104 107.426 145.195 106.742 145.195ZM106.918 129.99L109.867 132.705V132.822H107.631L106.098 131.396L104.584 132.822H102.387V132.676L105.287 129.99H106.918ZM104.76 147.295C104.76 146.917 104.903 146.602 105.189 146.348C105.476 146.1 105.86 145.977 106.342 145.977C106.817 145.977 107.198 146.1 107.484 146.348C107.777 146.602 107.924 146.917 107.924 147.295C107.924 147.666 107.777 147.979 107.484 148.232C107.198 148.486 106.817 148.613 106.342 148.613C105.86 148.613 105.476 148.486 105.189 148.232C104.903 147.979 104.76 147.666 104.76 147.295ZM115.434 136.689V145H112.621V134.434H115.258L115.434 136.689ZM115.023 139.346H114.262C114.262 138.564 114.363 137.861 114.564 137.236C114.766 136.605 115.049 136.068 115.414 135.625C115.779 135.176 116.212 134.834 116.713 134.6C117.221 134.359 117.787 134.238 118.412 134.238C118.907 134.238 119.359 134.31 119.77 134.453C120.18 134.596 120.531 134.824 120.824 135.137C121.124 135.449 121.352 135.863 121.508 136.377C121.671 136.891 121.752 137.52 121.752 138.262V145H118.92V138.252C118.92 137.783 118.855 137.419 118.725 137.158C118.594 136.898 118.402 136.715 118.148 136.611C117.901 136.501 117.595 136.445 117.23 136.445C116.853 136.445 116.524 136.52 116.244 136.67C115.971 136.82 115.743 137.028 115.561 137.295C115.385 137.555 115.251 137.861 115.16 138.213C115.069 138.564 115.023 138.942 115.023 139.346ZM134.047 134.434V136.426H127.895V134.434H134.047ZM129.418 131.826H132.23V141.816C132.23 142.122 132.27 142.357 132.348 142.52C132.432 142.682 132.556 142.796 132.719 142.861C132.882 142.92 133.087 142.949 133.334 142.949C133.51 142.949 133.666 142.943 133.803 142.93C133.946 142.91 134.066 142.891 134.164 142.871L134.174 144.941C133.933 145.02 133.673 145.081 133.393 145.127C133.113 145.173 132.803 145.195 132.465 145.195C131.846 145.195 131.306 145.094 130.844 144.893C130.388 144.684 130.036 144.352 129.789 143.896C129.542 143.441 129.418 142.842 129.418 142.1V131.826ZM138.393 130V145H135.58V130H138.393ZM137.992 139.346H137.221C137.227 138.61 137.325 137.933 137.514 137.314C137.702 136.689 137.973 136.149 138.324 135.693C138.676 135.231 139.096 134.873 139.584 134.619C140.079 134.365 140.626 134.238 141.225 134.238C141.745 134.238 142.217 134.313 142.641 134.463C143.07 134.606 143.438 134.84 143.744 135.166C144.057 135.485 144.298 135.905 144.467 136.426C144.636 136.947 144.721 137.578 144.721 138.32V145H141.889V138.301C141.889 137.832 141.82 137.464 141.684 137.197C141.553 136.924 141.361 136.732 141.107 136.621C140.86 136.504 140.554 136.445 140.189 136.445C139.786 136.445 139.441 136.52 139.154 136.67C138.874 136.82 138.65 137.028 138.48 137.295C138.311 137.555 138.188 137.861 138.109 138.213C138.031 138.564 137.992 138.942 137.992 139.346ZM146.41 139.824V139.619C146.41 138.844 146.521 138.132 146.742 137.48C146.964 136.823 147.286 136.253 147.709 135.771C148.132 135.29 148.653 134.915 149.271 134.648C149.89 134.375 150.6 134.238 151.4 134.238C152.201 134.238 152.914 134.375 153.539 134.648C154.164 134.915 154.688 135.29 155.111 135.771C155.541 136.253 155.867 136.823 156.088 137.48C156.309 138.132 156.42 138.844 156.42 139.619V139.824C156.42 140.592 156.309 141.305 156.088 141.963C155.867 142.614 155.541 143.184 155.111 143.672C154.688 144.154 154.167 144.528 153.549 144.795C152.93 145.062 152.221 145.195 151.42 145.195C150.619 145.195 149.906 145.062 149.281 144.795C148.663 144.528 148.139 144.154 147.709 143.672C147.286 143.184 146.964 142.614 146.742 141.963C146.521 141.305 146.41 140.592 146.41 139.824ZM149.223 139.619V139.824C149.223 140.267 149.262 140.68 149.34 141.064C149.418 141.449 149.542 141.787 149.711 142.08C149.887 142.367 150.115 142.591 150.395 142.754C150.674 142.917 151.016 142.998 151.42 142.998C151.811 142.998 152.146 142.917 152.426 142.754C152.706 142.591 152.93 142.367 153.1 142.08C153.269 141.787 153.393 141.449 153.471 141.064C153.555 140.68 153.598 140.267 153.598 139.824V139.619C153.598 139.189 153.555 138.786 153.471 138.408C153.393 138.024 153.266 137.686 153.09 137.393C152.921 137.093 152.696 136.859 152.416 136.689C152.136 136.52 151.798 136.436 151.4 136.436C151.003 136.436 150.665 136.52 150.385 136.689C150.111 136.859 149.887 137.093 149.711 137.393C149.542 137.686 149.418 138.024 149.34 138.408C149.262 138.786 149.223 139.189 149.223 139.619ZM163.852 142.617V137.91C163.852 137.572 163.796 137.282 163.686 137.041C163.575 136.794 163.402 136.602 163.168 136.465C162.94 136.328 162.644 136.26 162.279 136.26C161.967 136.26 161.697 136.315 161.469 136.426C161.241 136.53 161.065 136.683 160.941 136.885C160.818 137.08 160.756 137.311 160.756 137.578H157.943C157.943 137.129 158.048 136.702 158.256 136.299C158.464 135.895 158.767 135.54 159.164 135.234C159.561 134.922 160.033 134.678 160.58 134.502C161.133 134.326 161.752 134.238 162.436 134.238C163.256 134.238 163.985 134.375 164.623 134.648C165.261 134.922 165.762 135.332 166.127 135.879C166.498 136.426 166.684 137.109 166.684 137.93V142.451C166.684 143.031 166.719 143.506 166.791 143.877C166.863 144.242 166.967 144.561 167.104 144.834V145H164.262C164.125 144.714 164.021 144.355 163.949 143.926C163.884 143.49 163.852 143.053 163.852 142.617ZM164.223 138.564L164.242 140.156H162.67C162.299 140.156 161.977 140.199 161.703 140.283C161.43 140.368 161.205 140.488 161.029 140.645C160.854 140.794 160.723 140.97 160.639 141.172C160.561 141.374 160.521 141.595 160.521 141.836C160.521 142.077 160.577 142.295 160.688 142.49C160.798 142.679 160.958 142.829 161.166 142.939C161.374 143.044 161.618 143.096 161.898 143.096C162.322 143.096 162.689 143.011 163.002 142.842C163.314 142.673 163.555 142.464 163.725 142.217C163.9 141.969 163.992 141.735 163.998 141.514L164.74 142.705C164.636 142.972 164.493 143.249 164.311 143.535C164.135 143.822 163.91 144.092 163.637 144.346C163.363 144.593 163.035 144.798 162.65 144.961C162.266 145.117 161.811 145.195 161.283 145.195C160.613 145.195 160.004 145.062 159.457 144.795C158.917 144.521 158.487 144.147 158.168 143.672C157.855 143.19 157.699 142.643 157.699 142.031C157.699 141.478 157.803 140.986 158.012 140.557C158.22 140.127 158.526 139.766 158.93 139.473C159.34 139.173 159.851 138.949 160.463 138.799C161.075 138.643 161.785 138.564 162.592 138.564H164.223ZM160.111 147.148C160.111 146.771 160.255 146.455 160.541 146.201C160.827 145.954 161.212 145.83 161.693 145.83C162.169 145.83 162.549 145.954 162.836 146.201C163.129 146.455 163.275 146.771 163.275 147.148C163.275 147.52 163.129 147.832 162.836 148.086C162.549 148.34 162.169 148.467 161.693 148.467C161.212 148.467 160.827 148.34 160.541 148.086C160.255 147.832 160.111 147.52 160.111 147.148ZM171.82 134.434V145H168.998V134.434H171.82ZM168.822 131.68C168.822 131.27 168.965 130.931 169.252 130.664C169.538 130.397 169.923 130.264 170.404 130.264C170.88 130.264 171.26 130.397 171.547 130.664C171.84 130.931 171.986 131.27 171.986 131.68C171.986 132.09 171.84 132.428 171.547 132.695C171.26 132.962 170.88 133.096 170.404 133.096C169.923 133.096 169.538 132.962 169.252 132.695C168.965 132.428 168.822 132.09 168.822 131.68ZM174.252 143.643C174.252 143.226 174.395 142.878 174.682 142.598C174.975 142.318 175.362 142.178 175.844 142.178C176.326 142.178 176.71 142.318 176.996 142.598C177.289 142.878 177.436 143.226 177.436 143.643C177.436 144.059 177.289 144.408 176.996 144.688C176.71 144.967 176.326 145.107 175.844 145.107C175.362 145.107 174.975 144.967 174.682 144.688C174.395 144.408 174.252 144.059 174.252 143.643ZM174.252 135.586C174.252 135.169 174.395 134.821 174.682 134.541C174.975 134.261 175.362 134.121 175.844 134.121C176.326 134.121 176.71 134.261 176.996 134.541C177.289 134.821 177.436 135.169 177.436 135.586C177.436 136.003 177.289 136.351 176.996 136.631C176.71 136.911 176.326 137.051 175.844 137.051C175.362 137.051 174.975 136.911 174.682 136.631C174.395 136.351 174.252 136.003 174.252 135.586Z" fill="black"/>
<rect x="40.5" y="190.5" width="439" height="44" rx="19.5" fill="white" stroke="black"/>
<path d="M65.1113 216.715V219H57.543V216.715H65.1113ZM58.5 204.781V219H55.5703V204.781H58.5ZM64.125 210.572V212.799H57.543V210.572H64.125ZM65.1016 204.781V207.076H57.543V204.781H65.1016ZM69.457 210.621V219H66.6348V208.434H69.2812L69.457 210.621ZM69.0664 213.346H68.2852C68.2852 212.61 68.373 211.933 68.5488 211.314C68.7311 210.689 68.9948 210.149 69.3398 209.693C69.6914 209.231 70.1243 208.873 70.6387 208.619C71.153 208.365 71.7487 208.238 72.4258 208.238C72.8945 208.238 73.3242 208.31 73.7148 208.453C74.1055 208.59 74.4408 208.808 74.7207 209.107C75.0072 209.4 75.2285 209.785 75.3848 210.26C75.541 210.729 75.6191 211.292 75.6191 211.949V219H72.8066V212.262C72.8066 211.78 72.7415 211.409 72.6113 211.148C72.4811 210.888 72.2956 210.706 72.0547 210.602C71.8203 210.497 71.5371 210.445 71.2051 210.445C70.8405 210.445 70.5215 210.52 70.248 210.67C69.9811 210.82 69.7598 211.028 69.584 211.295C69.4082 211.555 69.278 211.861 69.1934 212.213C69.1087 212.564 69.0664 212.942 69.0664 213.346ZM75.3555 213.023L74.3496 213.15C74.3496 212.46 74.4342 211.819 74.6035 211.227C74.7793 210.634 75.0365 210.113 75.375 209.664C75.7201 209.215 76.1465 208.867 76.6543 208.619C77.1621 208.365 77.748 208.238 78.4121 208.238C78.9199 208.238 79.3822 208.313 79.7988 208.463C80.2155 208.606 80.5703 208.837 80.8633 209.156C81.1628 209.469 81.3906 209.879 81.5469 210.387C81.7096 210.895 81.791 211.516 81.791 212.252V219H78.9688V212.252C78.9688 211.764 78.9036 211.393 78.7734 211.139C78.6497 210.878 78.4674 210.699 78.2266 210.602C77.9922 210.497 77.7122 210.445 77.3867 210.445C77.0482 210.445 76.752 210.514 76.498 210.65C76.2441 210.781 76.0326 210.963 75.8633 211.197C75.694 211.432 75.5671 211.705 75.4824 212.018C75.3978 212.324 75.3555 212.659 75.3555 213.023ZM89.6719 216.617V211.91C89.6719 211.572 89.6165 211.282 89.5059 211.041C89.3952 210.794 89.2227 210.602 88.9883 210.465C88.7604 210.328 88.4642 210.26 88.0996 210.26C87.7871 210.26 87.5169 210.315 87.2891 210.426C87.0612 210.53 86.8854 210.683 86.7617 210.885C86.638 211.08 86.5762 211.311 86.5762 211.578H83.7637C83.7637 211.129 83.8678 210.702 84.0762 210.299C84.2845 209.895 84.5872 209.54 84.9844 209.234C85.3815 208.922 85.8535 208.678 86.4004 208.502C86.9538 208.326 87.5723 208.238 88.2559 208.238C89.0762 208.238 89.8053 208.375 90.4434 208.648C91.0814 208.922 91.5827 209.332 91.9473 209.879C92.3184 210.426 92.5039 211.109 92.5039 211.93V216.451C92.5039 217.031 92.5397 217.506 92.6113 217.877C92.6829 218.242 92.7871 218.561 92.9238 218.834V219H90.082C89.9453 218.714 89.8411 218.355 89.7695 217.926C89.7044 217.49 89.6719 217.053 89.6719 216.617ZM90.043 212.564L90.0625 214.156H88.4902C88.1191 214.156 87.7969 214.199 87.5234 214.283C87.25 214.368 87.0254 214.488 86.8496 214.645C86.6738 214.794 86.5436 214.97 86.459 215.172C86.3809 215.374 86.3418 215.595 86.3418 215.836C86.3418 216.077 86.3971 216.295 86.5078 216.49C86.6185 216.679 86.778 216.829 86.9863 216.939C87.1947 217.044 87.4388 217.096 87.7188 217.096C88.1419 217.096 88.5098 217.011 88.8223 216.842C89.1348 216.673 89.3757 216.464 89.5449 216.217C89.7207 215.969 89.8118 215.735 89.8184 215.514L90.5605 216.705C90.4564 216.972 90.3132 217.249 90.1309 217.535C89.9551 217.822 89.7305 218.092 89.457 218.346C89.1836 218.593 88.8548 218.798 88.4707 218.961C88.0866 219.117 87.6309 219.195 87.1035 219.195C86.4329 219.195 85.8242 219.062 85.2773 218.795C84.737 218.521 84.3073 218.147 83.9883 217.672C83.6758 217.19 83.5195 216.643 83.5195 216.031C83.5195 215.478 83.6237 214.986 83.832 214.557C84.0404 214.127 84.3464 213.766 84.75 213.473C85.1602 213.173 85.6712 212.949 86.2832 212.799C86.8952 212.643 87.6048 212.564 88.4121 212.564H90.043ZM97.6406 208.434V219H94.8184V208.434H97.6406ZM94.6426 205.68C94.6426 205.27 94.7858 204.931 95.0723 204.664C95.3587 204.397 95.7428 204.264 96.2246 204.264C96.6999 204.264 97.0807 204.397 97.3672 204.664C97.6602 204.931 97.8066 205.27 97.8066 205.68C97.8066 206.09 97.6602 206.428 97.3672 206.695C97.0807 206.962 96.6999 207.096 96.2246 207.096C95.7428 207.096 95.3587 206.962 95.0723 206.695C94.7858 206.428 94.6426 206.09 94.6426 205.68ZM102.934 204V219H100.111V204H102.934ZM105.365 217.643C105.365 217.226 105.508 216.878 105.795 216.598C106.088 216.318 106.475 216.178 106.957 216.178C107.439 216.178 107.823 216.318 108.109 216.598C108.402 216.878 108.549 217.226 108.549 217.643C108.549 218.059 108.402 218.408 108.109 218.688C107.823 218.967 107.439 219.107 106.957 219.107C106.475 219.107 106.088 218.967 105.795 218.688C105.508 218.408 105.365 218.059 105.365 217.643ZM105.365 209.586C105.365 209.169 105.508 208.821 105.795 208.541C106.088 208.261 106.475 208.121 106.957 208.121C107.439 208.121 107.823 208.261 108.109 208.541C108.402 208.821 108.549 209.169 108.549 209.586C108.549 210.003 108.402 210.351 108.109 210.631C107.823 210.911 107.439 211.051 106.957 211.051C106.475 211.051 106.088 210.911 105.795 210.631C105.508 210.351 105.365 210.003 105.365 209.586Z" fill="black"/>
<rect x="40.5" y="264.5" width="439" height="44" rx="19.5" fill="white" stroke="black"/>
<path d="M61.9277 278.781V293H59.0078V278.781H61.9277ZM66.3027 278.781V281.076H54.7012V278.781H66.3027ZM71.7422 293.195C70.9219 293.195 70.1862 293.065 69.5352 292.805C68.8841 292.538 68.3307 292.17 67.875 291.701C67.4258 291.232 67.0807 290.689 66.8398 290.07C66.599 289.445 66.4785 288.781 66.4785 288.078V287.688C66.4785 286.887 66.5924 286.154 66.8203 285.49C67.0482 284.826 67.3737 284.25 67.7969 283.762C68.2266 283.273 68.7474 282.899 69.3594 282.639C69.9714 282.372 70.6615 282.238 71.4297 282.238C72.1784 282.238 72.8424 282.362 73.4219 282.609C74.0013 282.857 74.4863 283.208 74.877 283.664C75.2741 284.12 75.5736 284.667 75.7754 285.305C75.9772 285.936 76.0781 286.639 76.0781 287.414V288.586H67.6797V286.711H73.3145V286.496C73.3145 286.105 73.2428 285.757 73.0996 285.451C72.9629 285.139 72.7546 284.891 72.4746 284.709C72.1947 284.527 71.8366 284.436 71.4004 284.436C71.0293 284.436 70.7103 284.517 70.4434 284.68C70.1764 284.842 69.9583 285.07 69.7891 285.363C69.6263 285.656 69.5026 286.001 69.418 286.398C69.3398 286.789 69.3008 287.219 69.3008 287.688V288.078C69.3008 288.501 69.3594 288.892 69.4766 289.25C69.6003 289.608 69.7728 289.917 69.9941 290.178C70.222 290.438 70.4954 290.64 70.8145 290.783C71.14 290.926 71.5078 290.998 71.918 290.998C72.4258 290.998 72.8978 290.9 73.334 290.705C73.7767 290.503 74.1576 290.201 74.4766 289.797L75.8438 291.281C75.6224 291.6 75.3197 291.906 74.9355 292.199C74.5579 292.492 74.1022 292.733 73.5684 292.922C73.0345 293.104 72.4258 293.195 71.7422 293.195ZM71.918 277.99L74.8672 280.705V280.822H72.6309L71.0977 279.396L69.584 280.822H67.3867V280.676L70.2871 277.99H71.918ZM80.4336 284.689V293H77.6211V282.434H80.2578L80.4336 284.689ZM80.0234 287.346H79.2617C79.2617 286.564 79.3626 285.861 79.5645 285.236C79.7663 284.605 80.0495 284.068 80.4141 283.625C80.7786 283.176 81.2116 282.834 81.7129 282.6C82.2207 282.359 82.7871 282.238 83.4121 282.238C83.9069 282.238 84.3594 282.31 84.7695 282.453C85.1797 282.596 85.5312 282.824 85.8242 283.137C86.1237 283.449 86.3516 283.863 86.5078 284.377C86.6706 284.891 86.752 285.52 86.752 286.262V293H83.9199V286.252C83.9199 285.783 83.8548 285.419 83.7246 285.158C83.5944 284.898 83.4023 284.715 83.1484 284.611C82.901 284.501 82.5951 284.445 82.2305 284.445C81.8529 284.445 81.5241 284.52 81.2441 284.67C80.9707 284.82 80.7428 285.028 80.5605 285.295C80.3848 285.555 80.2513 285.861 80.1602 286.213C80.069 286.564 80.0234 286.942 80.0234 287.346ZM99.584 290.08C99.584 289.878 99.5254 289.696 99.4082 289.533C99.291 289.37 99.0729 289.221 98.7539 289.084C98.4414 288.941 97.9889 288.811 97.3965 288.693C96.8626 288.576 96.3646 288.43 95.9023 288.254C95.4466 288.072 95.0495 287.854 94.7109 287.6C94.3789 287.346 94.1185 287.046 93.9297 286.701C93.7409 286.35 93.6465 285.949 93.6465 285.5C93.6465 285.057 93.7409 284.641 93.9297 284.25C94.125 283.859 94.4017 283.514 94.7598 283.215C95.1243 282.909 95.5671 282.671 96.0879 282.502C96.6152 282.326 97.2077 282.238 97.8652 282.238C98.7832 282.238 99.571 282.385 100.229 282.678C100.893 282.971 101.4 283.374 101.752 283.889C102.11 284.396 102.289 284.976 102.289 285.627H99.4766C99.4766 285.354 99.418 285.109 99.3008 284.895C99.1901 284.673 99.0143 284.501 98.7734 284.377C98.5391 284.247 98.2331 284.182 97.8555 284.182C97.543 284.182 97.2728 284.237 97.0449 284.348C96.8171 284.452 96.6413 284.595 96.5176 284.777C96.4004 284.953 96.3418 285.148 96.3418 285.363C96.3418 285.526 96.3743 285.673 96.4395 285.803C96.5111 285.926 96.625 286.04 96.7812 286.145C96.9375 286.249 97.1393 286.346 97.3867 286.438C97.6406 286.522 97.9531 286.6 98.3242 286.672C99.0859 286.828 99.7663 287.033 100.365 287.287C100.964 287.535 101.439 287.873 101.791 288.303C102.143 288.726 102.318 289.283 102.318 289.973C102.318 290.441 102.214 290.871 102.006 291.262C101.798 291.652 101.498 291.994 101.107 292.287C100.717 292.574 100.248 292.798 99.7012 292.961C99.1608 293.117 98.5521 293.195 97.875 293.195C96.8919 293.195 96.0586 293.02 95.375 292.668C94.6979 292.316 94.1836 291.87 93.832 291.33C93.487 290.783 93.3145 290.223 93.3145 289.65H95.9805C95.9935 290.035 96.0911 290.344 96.2734 290.578C96.4622 290.812 96.6999 290.982 96.9863 291.086C97.2793 291.19 97.5951 291.242 97.9336 291.242C98.2982 291.242 98.6009 291.193 98.8418 291.096C99.0827 290.992 99.265 290.855 99.3887 290.686C99.5189 290.51 99.584 290.308 99.584 290.08ZM109.848 290.617V285.91C109.848 285.572 109.792 285.282 109.682 285.041C109.571 284.794 109.398 284.602 109.164 284.465C108.936 284.328 108.64 284.26 108.275 284.26C107.963 284.26 107.693 284.315 107.465 284.426C107.237 284.53 107.061 284.683 106.938 284.885C106.814 285.08 106.752 285.311 106.752 285.578H103.939C103.939 285.129 104.044 284.702 104.252 284.299C104.46 283.895 104.763 283.54 105.16 283.234C105.557 282.922 106.029 282.678 106.576 282.502C107.13 282.326 107.748 282.238 108.432 282.238C109.252 282.238 109.981 282.375 110.619 282.648C111.257 282.922 111.758 283.332 112.123 283.879C112.494 284.426 112.68 285.109 112.68 285.93V290.451C112.68 291.031 112.715 291.506 112.787 291.877C112.859 292.242 112.963 292.561 113.1 292.834V293H110.258C110.121 292.714 110.017 292.355 109.945 291.926C109.88 291.49 109.848 291.053 109.848 290.617ZM110.219 286.564L110.238 288.156H108.666C108.295 288.156 107.973 288.199 107.699 288.283C107.426 288.368 107.201 288.488 107.025 288.645C106.85 288.794 106.719 288.97 106.635 289.172C106.557 289.374 106.518 289.595 106.518 289.836C106.518 290.077 106.573 290.295 106.684 290.49C106.794 290.679 106.954 290.829 107.162 290.939C107.37 291.044 107.615 291.096 107.895 291.096C108.318 291.096 108.686 291.011 108.998 290.842C109.311 290.673 109.551 290.464 109.721 290.217C109.896 289.969 109.988 289.735 109.994 289.514L110.736 290.705C110.632 290.972 110.489 291.249 110.307 291.535C110.131 291.822 109.906 292.092 109.633 292.346C109.359 292.593 109.031 292.798 108.646 292.961C108.262 293.117 107.807 293.195 107.279 293.195C106.609 293.195 106 293.062 105.453 292.795C104.913 292.521 104.483 292.147 104.164 291.672C103.852 291.19 103.695 290.643 103.695 290.031C103.695 289.478 103.799 288.986 104.008 288.557C104.216 288.127 104.522 287.766 104.926 287.473C105.336 287.173 105.847 286.949 106.459 286.799C107.071 286.643 107.781 286.564 108.588 286.564H110.219ZM109.242 278L112.191 280.715V280.832H109.955L108.422 279.406L106.908 280.832H104.711V280.686L107.611 278H109.242ZM117.602 284.689V293H114.789V282.434H117.426L117.602 284.689ZM117.191 287.346H116.43C116.43 286.564 116.531 285.861 116.732 285.236C116.934 284.605 117.217 284.068 117.582 283.625C117.947 283.176 118.38 282.834 118.881 282.6C119.389 282.359 119.955 282.238 120.58 282.238C121.075 282.238 121.527 282.31 121.938 282.453C122.348 282.596 122.699 282.824 122.992 283.137C123.292 283.449 123.52 283.863 123.676 284.377C123.839 284.891 123.92 285.52 123.92 286.262V293H121.088V286.252C121.088 285.783 121.023 285.419 120.893 285.158C120.762 284.898 120.57 284.715 120.316 284.611C120.069 284.501 119.763 284.445 119.398 284.445C119.021 284.445 118.692 284.52 118.412 284.67C118.139 284.82 117.911 285.028 117.729 285.295C117.553 285.555 117.419 285.861 117.328 286.213C117.237 286.564 117.191 286.942 117.191 287.346ZM126.166 291.643C126.166 291.226 126.309 290.878 126.596 290.598C126.889 290.318 127.276 290.178 127.758 290.178C128.24 290.178 128.624 290.318 128.91 290.598C129.203 290.878 129.35 291.226 129.35 291.643C129.35 292.059 129.203 292.408 128.91 292.688C128.624 292.967 128.24 293.107 127.758 293.107C127.276 293.107 126.889 292.967 126.596 292.688C126.309 292.408 126.166 292.059 126.166 291.643ZM126.166 283.586C126.166 283.169 126.309 282.821 126.596 282.541C126.889 282.261 127.276 282.121 127.758 282.121C128.24 282.121 128.624 282.261 128.91 282.541C129.203 282.821 129.35 283.169 129.35 283.586C129.35 284.003 129.203 284.351 128.91 284.631C128.624 284.911 128.24 285.051 127.758 285.051C127.276 285.051 126.889 284.911 126.596 284.631C126.309 284.351 126.166 284.003 126.166 283.586Z" fill="black"/>
<rect x="40.5" y="346.5" width="439" height="288" rx="19.5" fill="white" stroke="black"/>
<path d="M65.8086 377.715V380H58.6504V377.715H65.8086ZM59.5977 365.781V380H56.668V365.781H59.5977ZM76.3066 368.428H77.9863C77.9863 369.209 77.8659 369.88 77.625 370.439C77.3906 370.993 77.0163 371.419 76.502 371.719C75.9941 372.012 75.3301 372.158 74.5098 372.158V370.967C74.998 370.967 75.3691 370.863 75.623 370.654C75.8835 370.446 76.0625 370.153 76.1602 369.775C76.2578 369.398 76.3066 368.949 76.3066 368.428ZM66.8438 374.824V374.619C66.8438 373.844 66.9544 373.132 67.1758 372.48C67.3971 371.823 67.7194 371.253 68.1426 370.771C68.5723 370.29 69.0964 369.915 69.7148 369.648C70.3333 369.375 71.043 369.238 71.8438 369.238C72.6445 369.238 73.3542 369.375 73.9727 369.648C74.5977 369.915 75.1217 370.29 75.5449 370.771C75.9746 371.253 76.3001 371.823 76.5215 372.48C76.7428 373.132 76.8535 373.844 76.8535 374.619V374.824C76.8535 375.592 76.7428 376.305 76.5215 376.963C76.3001 377.614 75.9746 378.184 75.5449 378.672C75.1217 379.154 74.6009 379.528 73.9824 379.795C73.3639 380.062 72.6576 380.195 71.8633 380.195C71.0625 380.195 70.3496 380.062 69.7246 379.795C69.0996 379.528 68.5723 379.154 68.1426 378.672C67.7194 378.184 67.3971 377.614 67.1758 376.963C66.9544 376.305 66.8438 375.592 66.8438 374.824ZM69.6562 374.619V374.824C69.6562 375.267 69.6953 375.68 69.7734 376.064C69.8581 376.449 69.985 376.787 70.1543 377.08C70.3301 377.367 70.5579 377.591 70.8379 377.754C71.1178 377.917 71.4596 377.998 71.8633 377.998C72.2539 377.998 72.5859 377.917 72.8594 377.754C73.1393 377.591 73.3639 377.367 73.5332 377.08C73.7025 376.787 73.8262 376.449 73.9043 376.064C73.9889 375.68 74.0312 375.267 74.0312 374.824V374.619C74.0312 374.189 73.9922 373.786 73.9141 373.408C73.8359 373.024 73.709 372.686 73.5332 372.393C73.3639 372.093 73.1393 371.859 72.8594 371.689C72.5794 371.52 72.2409 371.436 71.8438 371.436C71.4466 371.436 71.1081 371.52 70.8281 371.689C70.5547 371.859 70.3301 372.093 70.1543 372.393C69.985 372.686 69.8581 373.024 69.7734 373.408C69.6953 373.786 69.6562 374.189 69.6562 374.619ZM71.3164 365L73.2402 368.008H70.9355L68.2598 365H71.3164ZM81.9023 369.434V380H79.0801V369.434H81.9023ZM78.9043 366.68C78.9043 366.27 79.0475 365.931 79.334 365.664C79.6204 365.397 80.0046 365.264 80.4863 365.264C80.9616 365.264 81.3424 365.397 81.6289 365.664C81.9219 365.931 82.0684 366.27 82.0684 366.68C82.0684 367.09 81.9219 367.428 81.6289 367.695C81.3424 367.962 80.9616 368.096 80.4863 368.096C80.0046 368.096 79.6204 367.962 79.334 367.695C79.0475 367.428 78.9043 367.09 78.9043 366.68ZM91.9609 371.689V380H89.1484V369.434H91.7852L91.9609 371.689ZM91.5508 374.346H90.7891C90.7891 373.564 90.89 372.861 91.0918 372.236C91.2936 371.605 91.5768 371.068 91.9414 370.625C92.306 370.176 92.7389 369.834 93.2402 369.6C93.748 369.359 94.3145 369.238 94.9395 369.238C95.4342 369.238 95.8867 369.31 96.2969 369.453C96.707 369.596 97.0586 369.824 97.3516 370.137C97.651 370.449 97.8789 370.863 98.0352 371.377C98.1979 371.891 98.2793 372.52 98.2793 373.262V380H95.4473V373.252C95.4473 372.783 95.3822 372.419 95.252 372.158C95.1217 371.898 94.9297 371.715 94.6758 371.611C94.4284 371.501 94.1224 371.445 93.7578 371.445C93.3802 371.445 93.0514 371.52 92.7715 371.67C92.498 371.82 92.2702 372.028 92.0879 372.295C91.9121 372.555 91.7786 372.861 91.6875 373.213C91.5964 373.564 91.5508 373.942 91.5508 374.346ZM103.162 365V380H100.35V365H103.162ZM102.762 374.346H101.99C101.997 373.61 102.094 372.933 102.283 372.314C102.472 371.689 102.742 371.149 103.094 370.693C103.445 370.231 103.865 369.873 104.354 369.619C104.848 369.365 105.395 369.238 105.994 369.238C106.515 369.238 106.987 369.313 107.41 369.463C107.84 369.606 108.208 369.84 108.514 370.166C108.826 370.485 109.067 370.905 109.236 371.426C109.406 371.947 109.49 372.578 109.49 373.32V380H106.658V373.301C106.658 372.832 106.59 372.464 106.453 372.197C106.323 371.924 106.131 371.732 105.877 371.621C105.63 371.504 105.324 371.445 104.959 371.445C104.555 371.445 104.21 371.52 103.924 371.67C103.644 371.82 103.419 372.028 103.25 372.295C103.081 372.555 102.957 372.861 102.879 373.213C102.801 373.564 102.762 373.942 102.762 374.346ZM117.332 377.617V372.91C117.332 372.572 117.277 372.282 117.166 372.041C117.055 371.794 116.883 371.602 116.648 371.465C116.421 371.328 116.124 371.26 115.76 371.26C115.447 371.26 115.177 371.315 114.949 371.426C114.721 371.53 114.546 371.683 114.422 371.885C114.298 372.08 114.236 372.311 114.236 372.578H111.424C111.424 372.129 111.528 371.702 111.736 371.299C111.945 370.895 112.247 370.54 112.645 370.234C113.042 369.922 113.514 369.678 114.061 369.502C114.614 369.326 115.232 369.238 115.916 369.238C116.736 369.238 117.465 369.375 118.104 369.648C118.742 369.922 119.243 370.332 119.607 370.879C119.979 371.426 120.164 372.109 120.164 372.93V377.451C120.164 378.031 120.2 378.506 120.271 378.877C120.343 379.242 120.447 379.561 120.584 379.834V380H117.742C117.605 379.714 117.501 379.355 117.43 378.926C117.365 378.49 117.332 378.053 117.332 377.617ZM117.703 373.564L117.723 375.156H116.15C115.779 375.156 115.457 375.199 115.184 375.283C114.91 375.368 114.686 375.488 114.51 375.645C114.334 375.794 114.204 375.97 114.119 376.172C114.041 376.374 114.002 376.595 114.002 376.836C114.002 377.077 114.057 377.295 114.168 377.49C114.279 377.679 114.438 377.829 114.646 377.939C114.855 378.044 115.099 378.096 115.379 378.096C115.802 378.096 116.17 378.011 116.482 377.842C116.795 377.673 117.036 377.464 117.205 377.217C117.381 376.969 117.472 376.735 117.479 376.514L118.221 377.705C118.117 377.972 117.973 378.249 117.791 378.535C117.615 378.822 117.391 379.092 117.117 379.346C116.844 379.593 116.515 379.798 116.131 379.961C115.747 380.117 115.291 380.195 114.764 380.195C114.093 380.195 113.484 380.062 112.938 379.795C112.397 379.521 111.967 379.147 111.648 378.672C111.336 378.19 111.18 377.643 111.18 377.031C111.18 376.478 111.284 375.986 111.492 375.557C111.701 375.127 112.007 374.766 112.41 374.473C112.82 374.173 113.331 373.949 113.943 373.799C114.555 373.643 115.265 373.564 116.072 373.564H117.703ZM117.42 365.781H119.275C119.275 366.224 119.139 366.618 118.865 366.963C118.592 367.301 118.201 367.565 117.693 367.754C117.186 367.943 116.583 368.037 115.887 368.037C115.19 368.037 114.585 367.943 114.07 367.754C113.562 367.565 113.172 367.301 112.898 366.963C112.625 366.618 112.488 366.224 112.488 365.781H114.334C114.334 366.068 114.448 366.325 114.676 366.553C114.91 366.774 115.314 366.885 115.887 366.885C116.447 366.885 116.84 366.774 117.068 366.553C117.303 366.325 117.42 366.068 117.42 365.781ZM115.105 365.752L116.316 363.906H118.289L116.57 365.752H115.105ZM125.086 371.689V380H122.273V369.434H124.91L125.086 371.689ZM124.676 374.346H123.914C123.914 373.564 124.015 372.861 124.217 372.236C124.419 371.605 124.702 371.068 125.066 370.625C125.431 370.176 125.864 369.834 126.365 369.6C126.873 369.359 127.439 369.238 128.064 369.238C128.559 369.238 129.012 369.31 129.422 369.453C129.832 369.596 130.184 369.824 130.477 370.137C130.776 370.449 131.004 370.863 131.16 371.377C131.323 371.891 131.404 372.52 131.404 373.262V380H128.572V373.252C128.572 372.783 128.507 372.419 128.377 372.158C128.247 371.898 128.055 371.715 127.801 371.611C127.553 371.501 127.247 371.445 126.883 371.445C126.505 371.445 126.176 371.52 125.896 371.67C125.623 371.82 125.395 372.028 125.213 372.295C125.037 372.555 124.904 372.861 124.812 373.213C124.721 373.564 124.676 373.942 124.676 374.346ZM144.764 377.695V365H147.596V380H145.047L144.764 377.695ZM138.084 374.844V374.639C138.084 373.831 138.175 373.099 138.357 372.441C138.54 371.777 138.807 371.208 139.158 370.732C139.51 370.257 139.943 369.889 140.457 369.629C140.971 369.368 141.557 369.238 142.215 369.238C142.833 369.238 143.374 369.368 143.836 369.629C144.305 369.889 144.702 370.26 145.027 370.742C145.359 371.217 145.626 371.781 145.828 372.432C146.03 373.076 146.176 373.783 146.268 374.551V375C146.176 375.736 146.03 376.419 145.828 377.051C145.626 377.682 145.359 378.236 145.027 378.711C144.702 379.18 144.305 379.544 143.836 379.805C143.367 380.065 142.82 380.195 142.195 380.195C141.538 380.195 140.952 380.062 140.438 379.795C139.93 379.528 139.5 379.154 139.148 378.672C138.803 378.19 138.54 377.624 138.357 376.973C138.175 376.322 138.084 375.612 138.084 374.844ZM140.896 374.639V374.844C140.896 375.28 140.929 375.687 140.994 376.064C141.066 376.442 141.18 376.777 141.336 377.07C141.499 377.357 141.707 377.581 141.961 377.744C142.221 377.9 142.537 377.979 142.908 377.979C143.39 377.979 143.787 377.871 144.1 377.656C144.412 377.435 144.65 377.132 144.812 376.748C144.982 376.364 145.079 375.921 145.105 375.42V374.141C145.086 373.73 145.027 373.363 144.93 373.037C144.839 372.705 144.702 372.422 144.52 372.188C144.344 371.953 144.122 371.771 143.855 371.641C143.595 371.51 143.286 371.445 142.928 371.445C142.563 371.445 142.251 371.53 141.99 371.699C141.73 371.862 141.518 372.087 141.355 372.373C141.199 372.66 141.082 372.998 141.004 373.389C140.932 373.773 140.896 374.189 140.896 374.639ZM155.496 377.617V372.91C155.496 372.572 155.441 372.282 155.33 372.041C155.219 371.794 155.047 371.602 154.812 371.465C154.585 371.328 154.288 371.26 153.924 371.26C153.611 371.26 153.341 371.315 153.113 371.426C152.885 371.53 152.71 371.683 152.586 371.885C152.462 372.08 152.4 372.311 152.4 372.578H149.588C149.588 372.129 149.692 371.702 149.9 371.299C150.109 370.895 150.411 370.54 150.809 370.234C151.206 369.922 151.678 369.678 152.225 369.502C152.778 369.326 153.396 369.238 154.08 369.238C154.9 369.238 155.63 369.375 156.268 369.648C156.906 369.922 157.407 370.332 157.771 370.879C158.143 371.426 158.328 372.109 158.328 372.93V377.451C158.328 378.031 158.364 378.506 158.436 378.877C158.507 379.242 158.611 379.561 158.748 379.834V380H155.906C155.77 379.714 155.665 379.355 155.594 378.926C155.529 378.49 155.496 378.053 155.496 377.617ZM155.867 373.564L155.887 375.156H154.314C153.943 375.156 153.621 375.199 153.348 375.283C153.074 375.368 152.85 375.488 152.674 375.645C152.498 375.794 152.368 375.97 152.283 376.172C152.205 376.374 152.166 376.595 152.166 376.836C152.166 377.077 152.221 377.295 152.332 377.49C152.443 377.679 152.602 377.829 152.811 377.939C153.019 378.044 153.263 378.096 153.543 378.096C153.966 378.096 154.334 378.011 154.646 377.842C154.959 377.673 155.2 377.464 155.369 377.217C155.545 376.969 155.636 376.735 155.643 376.514L156.385 377.705C156.281 377.972 156.137 378.249 155.955 378.535C155.779 378.822 155.555 379.092 155.281 379.346C155.008 379.593 154.679 379.798 154.295 379.961C153.911 380.117 153.455 380.195 152.928 380.195C152.257 380.195 151.648 380.062 151.102 379.795C150.561 379.521 150.132 379.147 149.812 378.672C149.5 378.19 149.344 377.643 149.344 377.031C149.344 376.478 149.448 375.986 149.656 375.557C149.865 375.127 150.171 374.766 150.574 374.473C150.984 374.173 151.495 373.949 152.107 373.799C152.719 373.643 153.429 373.564 154.236 373.564H155.867ZM153.533 365L155.457 368.008H153.152L150.477 365H153.533ZM163.25 371.689V380H160.438V369.434H163.074L163.25 371.689ZM162.84 374.346H162.078C162.078 373.564 162.179 372.861 162.381 372.236C162.583 371.605 162.866 371.068 163.23 370.625C163.595 370.176 164.028 369.834 164.529 369.6C165.037 369.359 165.604 369.238 166.229 369.238C166.723 369.238 167.176 369.31 167.586 369.453C167.996 369.596 168.348 369.824 168.641 370.137C168.94 370.449 169.168 370.863 169.324 371.377C169.487 371.891 169.568 372.52 169.568 373.262V380H166.736V373.252C166.736 372.783 166.671 372.419 166.541 372.158C166.411 371.898 166.219 371.715 165.965 371.611C165.717 371.501 165.411 371.445 165.047 371.445C164.669 371.445 164.34 371.52 164.061 371.67C163.787 371.82 163.559 372.028 163.377 372.295C163.201 372.555 163.068 372.861 162.977 373.213C162.885 373.564 162.84 373.942 162.84 374.346ZM174.451 365V380H171.639V365H174.451ZM174.051 374.346H173.279C173.286 373.61 173.383 372.933 173.572 372.314C173.761 371.689 174.031 371.149 174.383 370.693C174.734 370.231 175.154 369.873 175.643 369.619C176.137 369.365 176.684 369.238 177.283 369.238C177.804 369.238 178.276 369.313 178.699 369.463C179.129 369.606 179.497 369.84 179.803 370.166C180.115 370.485 180.356 370.905 180.525 371.426C180.695 371.947 180.779 372.578 180.779 373.32V380H177.947V373.301C177.947 372.832 177.879 372.464 177.742 372.197C177.612 371.924 177.42 371.732 177.166 371.621C176.919 371.504 176.613 371.445 176.248 371.445C175.844 371.445 175.499 371.52 175.213 371.67C174.933 371.82 174.708 372.028 174.539 372.295C174.37 372.555 174.246 372.861 174.168 373.213C174.09 373.564 174.051 373.942 174.051 374.346ZM192.264 377.998C192.609 377.998 192.915 377.933 193.182 377.803C193.449 377.666 193.657 377.477 193.807 377.236C193.963 376.989 194.044 376.699 194.051 376.367H196.697C196.691 377.109 196.492 377.77 196.102 378.35C195.711 378.923 195.187 379.375 194.529 379.707C193.872 380.033 193.136 380.195 192.322 380.195C191.502 380.195 190.786 380.059 190.174 379.785C189.568 379.512 189.064 379.134 188.66 378.652C188.257 378.164 187.954 377.598 187.752 376.953C187.55 376.302 187.449 375.605 187.449 374.863V374.58C187.449 373.831 187.55 373.135 187.752 372.49C187.954 371.839 188.257 371.273 188.66 370.791C189.064 370.303 189.568 369.922 190.174 369.648C190.779 369.375 191.489 369.238 192.303 369.238C193.169 369.238 193.927 369.404 194.578 369.736C195.236 370.068 195.75 370.544 196.121 371.162C196.499 371.774 196.691 372.5 196.697 373.34H194.051C194.044 372.988 193.969 372.669 193.826 372.383C193.689 372.096 193.488 371.868 193.221 371.699C192.96 371.523 192.638 371.436 192.254 371.436C191.844 371.436 191.508 371.523 191.248 371.699C190.988 371.868 190.786 372.103 190.643 372.402C190.499 372.695 190.398 373.031 190.34 373.408C190.288 373.779 190.262 374.17 190.262 374.58V374.863C190.262 375.273 190.288 375.667 190.34 376.045C190.392 376.423 190.49 376.758 190.633 377.051C190.783 377.344 190.988 377.575 191.248 377.744C191.508 377.913 191.847 377.998 192.264 377.998ZM201.072 365V380H198.26V365H201.072ZM200.672 374.346H199.9C199.907 373.61 200.005 372.933 200.193 372.314C200.382 371.689 200.652 371.149 201.004 370.693C201.355 370.231 201.775 369.873 202.264 369.619C202.758 369.365 203.305 369.238 203.904 369.238C204.425 369.238 204.897 369.313 205.32 369.463C205.75 369.606 206.118 369.84 206.424 370.166C206.736 370.485 206.977 370.905 207.146 371.426C207.316 371.947 207.4 372.578 207.4 373.32V380H204.568V373.301C204.568 372.832 204.5 372.464 204.363 372.197C204.233 371.924 204.041 371.732 203.787 371.621C203.54 371.504 203.234 371.445 202.869 371.445C202.465 371.445 202.12 371.52 201.834 371.67C201.554 371.82 201.329 372.028 201.16 372.295C200.991 372.555 200.867 372.861 200.789 373.213C200.711 373.564 200.672 373.942 200.672 374.346ZM209.09 374.824V374.619C209.09 373.844 209.201 373.132 209.422 372.48C209.643 371.823 209.965 371.253 210.389 370.771C210.812 370.29 211.333 369.915 211.951 369.648C212.57 369.375 213.279 369.238 214.08 369.238C214.881 369.238 215.594 369.375 216.219 369.648C216.844 369.915 217.368 370.29 217.791 370.771C218.221 371.253 218.546 371.823 218.768 372.48C218.989 373.132 219.1 373.844 219.1 374.619V374.824C219.1 375.592 218.989 376.305 218.768 376.963C218.546 377.614 218.221 378.184 217.791 378.672C217.368 379.154 216.847 379.528 216.229 379.795C215.61 380.062 214.9 380.195 214.1 380.195C213.299 380.195 212.586 380.062 211.961 379.795C211.342 379.528 210.818 379.154 210.389 378.672C209.965 378.184 209.643 377.614 209.422 376.963C209.201 376.305 209.09 375.592 209.09 374.824ZM211.902 374.619V374.824C211.902 375.267 211.941 375.68 212.02 376.064C212.098 376.449 212.221 376.787 212.391 377.08C212.566 377.367 212.794 377.591 213.074 377.754C213.354 377.917 213.696 377.998 214.1 377.998C214.49 377.998 214.826 377.917 215.105 377.754C215.385 377.591 215.61 377.367 215.779 377.08C215.949 376.787 216.072 376.449 216.15 376.064C216.235 375.68 216.277 375.267 216.277 374.824V374.619C216.277 374.189 216.235 373.786 216.15 373.408C216.072 373.024 215.945 372.686 215.77 372.393C215.6 372.093 215.376 371.859 215.096 371.689C214.816 371.52 214.477 371.436 214.08 371.436C213.683 371.436 213.344 371.52 213.064 371.689C212.791 371.859 212.566 372.093 212.391 372.393C212.221 372.686 212.098 373.024 212.02 373.408C211.941 373.786 211.902 374.189 211.902 374.619ZM233.387 376.279C233.387 376.025 233.348 375.798 233.27 375.596C233.198 375.387 233.061 375.199 232.859 375.029C232.658 374.854 232.374 374.681 232.01 374.512C231.645 374.342 231.173 374.167 230.594 373.984C229.949 373.776 229.337 373.542 228.758 373.281C228.185 373.021 227.677 372.718 227.234 372.373C226.798 372.021 226.453 371.615 226.199 371.152C225.952 370.69 225.828 370.153 225.828 369.541C225.828 368.949 225.958 368.411 226.219 367.93C226.479 367.441 226.844 367.025 227.312 366.68C227.781 366.328 228.335 366.058 228.973 365.869C229.617 365.68 230.324 365.586 231.092 365.586C232.14 365.586 233.055 365.775 233.836 366.152C234.617 366.53 235.223 367.048 235.652 367.705C236.089 368.363 236.307 369.115 236.307 369.961H233.396C233.396 369.544 233.309 369.18 233.133 368.867C232.964 368.548 232.703 368.298 232.352 368.115C232.007 367.933 231.57 367.842 231.043 367.842C230.535 367.842 230.112 367.92 229.773 368.076C229.435 368.226 229.181 368.431 229.012 368.691C228.842 368.945 228.758 369.232 228.758 369.551C228.758 369.792 228.816 370.01 228.934 370.205C229.057 370.4 229.24 370.583 229.48 370.752C229.721 370.921 230.018 371.081 230.369 371.23C230.721 371.38 231.128 371.527 231.59 371.67C232.365 371.904 233.045 372.168 233.631 372.461C234.223 372.754 234.718 373.083 235.115 373.447C235.512 373.812 235.812 374.225 236.014 374.688C236.215 375.15 236.316 375.674 236.316 376.26C236.316 376.878 236.196 377.432 235.955 377.92C235.714 378.408 235.366 378.822 234.91 379.16C234.454 379.499 233.911 379.756 233.279 379.932C232.648 380.107 231.941 380.195 231.16 380.195C230.457 380.195 229.764 380.104 229.08 379.922C228.396 379.733 227.775 379.45 227.215 379.072C226.661 378.695 226.219 378.213 225.887 377.627C225.555 377.041 225.389 376.348 225.389 375.547H228.328C228.328 375.99 228.396 376.364 228.533 376.67C228.67 376.976 228.862 377.223 229.109 377.412C229.363 377.601 229.663 377.738 230.008 377.822C230.359 377.907 230.743 377.949 231.16 377.949C231.668 377.949 232.085 377.878 232.41 377.734C232.742 377.591 232.986 377.393 233.143 377.139C233.305 376.885 233.387 376.598 233.387 376.279ZM240.945 371.465V384.062H238.133V369.434H240.74L240.945 371.465ZM247.635 374.6V374.805C247.635 375.573 247.544 376.286 247.361 376.943C247.186 377.601 246.925 378.174 246.58 378.662C246.235 379.144 245.805 379.521 245.291 379.795C244.783 380.062 244.197 380.195 243.533 380.195C242.889 380.195 242.329 380.065 241.854 379.805C241.378 379.544 240.978 379.18 240.652 378.711C240.333 378.236 240.076 377.686 239.881 377.061C239.686 376.436 239.536 375.765 239.432 375.049V374.512C239.536 373.743 239.686 373.04 239.881 372.402C240.076 371.758 240.333 371.201 240.652 370.732C240.978 370.257 241.375 369.889 241.844 369.629C242.319 369.368 242.876 369.238 243.514 369.238C244.184 369.238 244.773 369.365 245.281 369.619C245.796 369.873 246.225 370.238 246.57 370.713C246.922 371.188 247.186 371.755 247.361 372.412C247.544 373.07 247.635 373.799 247.635 374.6ZM244.812 374.805V374.6C244.812 374.15 244.773 373.737 244.695 373.359C244.624 372.975 244.507 372.64 244.344 372.354C244.188 372.067 243.979 371.846 243.719 371.689C243.465 371.527 243.156 371.445 242.791 371.445C242.407 371.445 242.078 371.507 241.805 371.631C241.538 371.755 241.32 371.934 241.15 372.168C240.981 372.402 240.854 372.682 240.77 373.008C240.685 373.333 240.633 373.701 240.613 374.111V375.469C240.646 375.951 240.737 376.383 240.887 376.768C241.036 377.145 241.268 377.445 241.58 377.666C241.893 377.887 242.303 377.998 242.811 377.998C243.182 377.998 243.494 377.917 243.748 377.754C244.002 377.585 244.207 377.354 244.363 377.061C244.526 376.768 244.64 376.429 244.705 376.045C244.777 375.661 244.812 375.247 244.812 374.805ZM248.934 374.824V374.619C248.934 373.844 249.044 373.132 249.266 372.48C249.487 371.823 249.809 371.253 250.232 370.771C250.656 370.29 251.176 369.915 251.795 369.648C252.413 369.375 253.123 369.238 253.924 369.238C254.725 369.238 255.438 369.375 256.062 369.648C256.688 369.915 257.212 370.29 257.635 370.771C258.064 371.253 258.39 371.823 258.611 372.48C258.833 373.132 258.943 373.844 258.943 374.619V374.824C258.943 375.592 258.833 376.305 258.611 376.963C258.39 377.614 258.064 378.184 257.635 378.672C257.212 379.154 256.691 379.528 256.072 379.795C255.454 380.062 254.744 380.195 253.943 380.195C253.143 380.195 252.43 380.062 251.805 379.795C251.186 379.528 250.662 379.154 250.232 378.672C249.809 378.184 249.487 377.614 249.266 376.963C249.044 376.305 248.934 375.592 248.934 374.824ZM251.746 374.619V374.824C251.746 375.267 251.785 375.68 251.863 376.064C251.941 376.449 252.065 376.787 252.234 377.08C252.41 377.367 252.638 377.591 252.918 377.754C253.198 377.917 253.54 377.998 253.943 377.998C254.334 377.998 254.669 377.917 254.949 377.754C255.229 377.591 255.454 377.367 255.623 377.08C255.792 376.787 255.916 376.449 255.994 376.064C256.079 375.68 256.121 375.267 256.121 374.824V374.619C256.121 374.189 256.079 373.786 255.994 373.408C255.916 373.024 255.789 372.686 255.613 372.393C255.444 372.093 255.219 371.859 254.939 371.689C254.66 371.52 254.321 371.436 253.924 371.436C253.527 371.436 253.188 371.52 252.908 371.689C252.635 371.859 252.41 372.093 252.234 372.393C252.065 372.686 251.941 373.024 251.863 373.408C251.785 373.786 251.746 374.189 251.746 374.619ZM263.484 371.738V380H260.672V369.434H263.318L263.484 371.738ZM266.668 369.365L266.619 371.973C266.482 371.953 266.316 371.937 266.121 371.924C265.932 371.904 265.76 371.895 265.604 371.895C265.206 371.895 264.861 371.947 264.568 372.051C264.282 372.148 264.041 372.295 263.846 372.49C263.657 372.686 263.514 372.923 263.416 373.203C263.325 373.483 263.273 373.802 263.26 374.16L262.693 373.984C262.693 373.301 262.762 372.673 262.898 372.1C263.035 371.52 263.234 371.016 263.494 370.586C263.761 370.156 264.087 369.824 264.471 369.59C264.855 369.355 265.294 369.238 265.789 369.238C265.945 369.238 266.105 369.251 266.268 369.277C266.43 369.297 266.564 369.326 266.668 369.365ZM273.66 369.434V371.426H267.508V369.434H273.66ZM269.031 366.826H271.844V376.816C271.844 377.122 271.883 377.357 271.961 377.52C272.046 377.682 272.169 377.796 272.332 377.861C272.495 377.92 272.7 377.949 272.947 377.949C273.123 377.949 273.279 377.943 273.416 377.93C273.559 377.91 273.68 377.891 273.777 377.871L273.787 379.941C273.546 380.02 273.286 380.081 273.006 380.127C272.726 380.173 272.417 380.195 272.078 380.195C271.46 380.195 270.919 380.094 270.457 379.893C270.001 379.684 269.65 379.352 269.402 378.896C269.155 378.441 269.031 377.842 269.031 377.1V366.826ZM282.84 376.279C282.84 376.025 282.801 375.798 282.723 375.596C282.651 375.387 282.514 375.199 282.312 375.029C282.111 374.854 281.827 374.681 281.463 374.512C281.098 374.342 280.626 374.167 280.047 373.984C279.402 373.776 278.79 373.542 278.211 373.281C277.638 373.021 277.13 372.718 276.688 372.373C276.251 372.021 275.906 371.615 275.652 371.152C275.405 370.69 275.281 370.153 275.281 369.541C275.281 368.949 275.411 368.411 275.672 367.93C275.932 367.441 276.297 367.025 276.766 366.68C277.234 366.328 277.788 366.058 278.426 365.869C279.07 365.68 279.777 365.586 280.545 365.586C281.593 365.586 282.508 365.775 283.289 366.152C284.07 366.53 284.676 367.048 285.105 367.705C285.542 368.363 285.76 369.115 285.76 369.961H282.85C282.85 369.544 282.762 369.18 282.586 368.867C282.417 368.548 282.156 368.298 281.805 368.115C281.46 367.933 281.023 367.842 280.496 367.842C279.988 367.842 279.565 367.92 279.227 368.076C278.888 368.226 278.634 368.431 278.465 368.691C278.296 368.945 278.211 369.232 278.211 369.551C278.211 369.792 278.27 370.01 278.387 370.205C278.51 370.4 278.693 370.583 278.934 370.752C279.174 370.921 279.471 371.081 279.822 371.23C280.174 371.38 280.581 371.527 281.043 371.67C281.818 371.904 282.498 372.168 283.084 372.461C283.676 372.754 284.171 373.083 284.568 373.447C284.965 373.812 285.265 374.225 285.467 374.688C285.669 375.15 285.77 375.674 285.77 376.26C285.77 376.878 285.649 377.432 285.408 377.92C285.167 378.408 284.819 378.822 284.363 379.16C283.908 379.499 283.364 379.756 282.732 379.932C282.101 380.107 281.395 380.195 280.613 380.195C279.91 380.195 279.217 380.104 278.533 379.922C277.85 379.733 277.228 379.45 276.668 379.072C276.115 378.695 275.672 378.213 275.34 377.627C275.008 377.041 274.842 376.348 274.842 375.547H277.781C277.781 375.99 277.85 376.364 277.986 376.67C278.123 376.976 278.315 377.223 278.562 377.412C278.816 377.601 279.116 377.738 279.461 377.822C279.812 377.907 280.197 377.949 280.613 377.949C281.121 377.949 281.538 377.878 281.863 377.734C282.195 377.591 282.439 377.393 282.596 377.139C282.758 376.885 282.84 376.598 282.84 376.279ZM290.398 371.465V384.062H287.586V369.434H290.193L290.398 371.465ZM297.088 374.6V374.805C297.088 375.573 296.997 376.286 296.814 376.943C296.639 377.601 296.378 378.174 296.033 378.662C295.688 379.144 295.258 379.521 294.744 379.795C294.236 380.062 293.65 380.195 292.986 380.195C292.342 380.195 291.782 380.065 291.307 379.805C290.831 379.544 290.431 379.18 290.105 378.711C289.786 378.236 289.529 377.686 289.334 377.061C289.139 376.436 288.989 375.765 288.885 375.049V374.512C288.989 373.743 289.139 373.04 289.334 372.402C289.529 371.758 289.786 371.201 290.105 370.732C290.431 370.257 290.828 369.889 291.297 369.629C291.772 369.368 292.329 369.238 292.967 369.238C293.637 369.238 294.227 369.365 294.734 369.619C295.249 369.873 295.678 370.238 296.023 370.713C296.375 371.188 296.639 371.755 296.814 372.412C296.997 373.07 297.088 373.799 297.088 374.6ZM294.266 374.805V374.6C294.266 374.15 294.227 373.737 294.148 373.359C294.077 372.975 293.96 372.64 293.797 372.354C293.641 372.067 293.432 371.846 293.172 371.689C292.918 371.527 292.609 371.445 292.244 371.445C291.86 371.445 291.531 371.507 291.258 371.631C290.991 371.755 290.773 371.934 290.604 372.168C290.434 372.402 290.307 372.682 290.223 373.008C290.138 373.333 290.086 373.701 290.066 374.111V375.469C290.099 375.951 290.19 376.383 290.34 376.768C290.49 377.145 290.721 377.445 291.033 377.666C291.346 377.887 291.756 377.998 292.264 377.998C292.635 377.998 292.947 377.917 293.201 377.754C293.455 377.585 293.66 377.354 293.816 377.061C293.979 376.768 294.093 376.429 294.158 376.045C294.23 375.661 294.266 375.247 294.266 374.805ZM298.387 374.824V374.619C298.387 373.844 298.497 373.132 298.719 372.48C298.94 371.823 299.262 371.253 299.686 370.771C300.109 370.29 300.63 369.915 301.248 369.648C301.867 369.375 302.576 369.238 303.377 369.238C304.178 369.238 304.891 369.375 305.516 369.648C306.141 369.915 306.665 370.29 307.088 370.771C307.518 371.253 307.843 371.823 308.064 372.48C308.286 373.132 308.396 373.844 308.396 374.619V374.824C308.396 375.592 308.286 376.305 308.064 376.963C307.843 377.614 307.518 378.184 307.088 378.672C306.665 379.154 306.144 379.528 305.525 379.795C304.907 380.062 304.197 380.195 303.396 380.195C302.596 380.195 301.883 380.062 301.258 379.795C300.639 379.528 300.115 379.154 299.686 378.672C299.262 378.184 298.94 377.614 298.719 376.963C298.497 376.305 298.387 375.592 298.387 374.824ZM301.199 374.619V374.824C301.199 375.267 301.238 375.68 301.316 376.064C301.395 376.449 301.518 376.787 301.688 377.08C301.863 377.367 302.091 377.591 302.371 377.754C302.651 377.917 302.993 377.998 303.396 377.998C303.787 377.998 304.122 377.917 304.402 377.754C304.682 377.591 304.907 377.367 305.076 377.08C305.245 376.787 305.369 376.449 305.447 376.064C305.532 375.68 305.574 375.267 305.574 374.824V374.619C305.574 374.189 305.532 373.786 305.447 373.408C305.369 373.024 305.242 372.686 305.066 372.393C304.897 372.093 304.673 371.859 304.393 371.689C304.113 371.52 303.774 371.436 303.377 371.436C302.98 371.436 302.641 371.52 302.361 371.689C302.088 371.859 301.863 372.093 301.688 372.393C301.518 372.686 301.395 373.024 301.316 373.408C301.238 373.786 301.199 374.189 301.199 374.619ZM315.301 369.434V371.426H309.148V369.434H315.301ZM310.672 366.826H313.484V376.816C313.484 377.122 313.523 377.357 313.602 377.52C313.686 377.682 313.81 377.796 313.973 377.861C314.135 377.92 314.34 377.949 314.588 377.949C314.764 377.949 314.92 377.943 315.057 377.93C315.2 377.91 315.32 377.891 315.418 377.871L315.428 379.941C315.187 380.02 314.926 380.081 314.646 380.127C314.367 380.173 314.057 380.195 313.719 380.195C313.1 380.195 312.56 380.094 312.098 379.893C311.642 379.684 311.29 379.352 311.043 378.896C310.796 378.441 310.672 377.842 310.672 377.1V366.826ZM317.01 378.643C317.01 378.226 317.153 377.878 317.439 377.598C317.732 377.318 318.12 377.178 318.602 377.178C319.083 377.178 319.467 377.318 319.754 377.598C320.047 377.878 320.193 378.226 320.193 378.643C320.193 379.059 320.047 379.408 319.754 379.688C319.467 379.967 319.083 380.107 318.602 380.107C318.12 380.107 317.732 379.967 317.439 379.688C317.153 379.408 317.01 379.059 317.01 378.643ZM317.01 370.586C317.01 370.169 317.153 369.821 317.439 369.541C317.732 369.261 318.12 369.121 318.602 369.121C319.083 369.121 319.467 369.261 319.754 369.541C320.047 369.821 320.193 370.169 320.193 370.586C320.193 371.003 320.047 371.351 319.754 371.631C319.467 371.911 319.083 372.051 318.602 372.051C318.12 372.051 317.732 371.911 317.439 371.631C317.153 371.351 317.01 371.003 317.01 370.586Z" fill="black"/>
<defs>
<linearGradient id="paint0_linear_1715_9653" x1="-126" y1="151" x2="706" y2="666" gradientUnits="userSpaceOnUse">
<stop stop-color="#70F479"/>
<stop offset="0.479" stop-color="#648CBA"/>
<stop offset="1" stop-color="#5A2FF6"/>
</linearGradient>
</defs>
</svg>
