<svg width="180" height="180" viewBox="0 0 180 180" fill="none" xmlns="http://www.w3.org/2000/svg">
<g clip-path="url(#clip0_1216_5654)">
<path d="M137.812 0H42.1875C18.888 0 0 18.888 0 42.1875V137.812C0 161.112 18.888 180 42.1875 180H137.812C161.112 180 180 161.112 180 137.812V42.1875C180 18.888 161.112 0 137.812 0Z" fill="#242937"/>
<path d="M29.2753 142.754H51.6473V88.4217L19.6875 64.4521V133.166C19.6875 138.472 23.9864 142.754 29.2753 142.754Z" fill="#4285F4"/>
<path d="M128.352 142.754H150.724C156.029 142.754 160.312 138.456 160.312 133.166V64.4521L128.352 88.4217" fill="#34A853"/>
<path d="M128.352 46.8731V88.4215L160.312 64.4519V51.6663C160.312 39.8095 146.777 33.0497 137.301 40.1611" fill="#FBBC04"/>
<path d="M51.6484 88.4214V46.8737L90.0004 75.6379L128.352 46.873V88.4214L90.0004 117.186" fill="#EA4335"/>
<path d="M19.6875 51.668V64.4515L51.6473 88.4217V46.8741L42.6987 40.162C33.2065 33.0506 19.6875 39.8105 19.6875 51.668Z" fill="#C5221F"/>
</g>
<defs>
<clipPath id="clip0_1216_5654">
<rect width="180" height="180" fill="white"/>
</clipPath>
</defs>
</svg>
