<svg width="202" height="196" viewBox="0 0 202 196" fill="none" xmlns="http://www.w3.org/2000/svg">
<g clip-path="url(#clip0_1183_5752)">
<path d="M11.5735 196C10.9655 195.998 10.3797 195.751 9.92828 195.306C9.47684 194.861 9.19156 194.251 9.12708 193.591L-0.000331018 92.5772L-0.0078125 92.3241C-0.0078125 90.8377 1.09197 89.6372 2.45359 89.6372H64.0486V196.008L11.5735 196ZM36.7113 169.336C36.7113 171.437 37.2822 173.499 38.3517 175.247C39.4212 176.994 40.9413 178.356 42.7199 179.16C44.4984 179.964 46.4555 180.175 48.3436 179.765C50.2317 179.355 51.966 178.343 53.3273 176.857C54.6885 175.371 55.6155 173.478 55.9911 171.417C56.3667 169.356 56.1739 167.219 55.4372 165.278C54.7005 163.337 53.4529 161.677 51.8523 160.51C50.2516 159.342 48.3698 158.719 46.4447 158.719H46.4297C41.0506 158.719 36.6963 163.472 36.6889 169.344L36.7113 169.336ZM40.3024 104.002C40.3024 105.481 41.4022 106.681 42.7638 106.681H48.4797C49.1305 106.681 49.7547 106.399 50.2149 105.896C50.6751 105.394 50.9336 104.713 50.9336 104.002C50.9336 103.292 50.6751 102.611 50.2149 102.108C49.7547 101.606 49.1305 101.324 48.4797 101.324H42.7189C42.0667 101.326 41.4418 101.61 40.9806 102.113C40.5195 102.616 40.2595 103.299 40.2575 104.011V104.035L40.3024 104.002ZM13.2943 104.002C13.2943 105.481 14.394 106.681 15.7482 106.681H34.4893C35.1401 106.681 35.7643 106.399 36.2245 105.896C36.6847 105.394 36.9432 104.713 36.9432 104.002C36.9432 103.292 36.6847 102.611 36.2245 102.108C35.7643 101.606 35.1401 101.324 34.4893 101.324H15.7033C15.0537 101.328 14.4318 101.612 13.9724 102.113C13.5131 102.614 13.2533 103.293 13.2494 104.002V104.027L13.2943 104.002ZM86.6128 180.671C85.2948 180.184 84.0496 179.487 82.9169 178.605L82.9618 178.638L82.2137 178.123C80.471 176.93 78.7499 175.699 77.0515 174.432L76.2958 173.852C75.3083 173.076 74.8444 172.733 74.3357 172.766L68.949 172.847V98.0816L68.8517 91.7932C72.2259 89.4494 75.3382 87.2199 76.2734 86.3706C77.5452 83.5776 78.8021 81.2419 80.1937 79.0042L80.0665 79.2247C80.7149 78.1358 81.3334 77.0578 81.9219 75.9907L94.82 52.3564C95.4285 51.2457 96.0619 50.1351 96.7203 49.0244C97.8051 47.2604 98.9572 45.1534 100.012 42.9811L100.192 42.5809C100.773 41.2588 100.979 39.7769 100.783 38.3261L100.79 38.3669L100.745 12.8869C101.217 9.17922 103.132 6.04322 105.833 4.13222L105.878 4.09956C108.285 1.73223 111.341 0.297098 114.571 0.0162233H114.623L115.095 0.00805664C117.646 0.00805664 120.055 0.669557 122.195 1.83739L122.105 1.78839C123.534 2.53972 124.753 3.34006 125.898 4.23839L125.823 4.18122L126.616 4.75289C128.419 5.79006 129.766 7.53772 130.364 9.65289L130.379 9.71006C131.778 15.3941 133.058 20.5636 134.247 25.7494L134.741 27.8646C135.497 30.6412 136.148 33.9977 136.567 37.4359L136.604 37.7789C135.325 50.6332 132.863 62.3606 129.302 73.5326L129.616 72.4056L187.171 72.3157H187.381C189.124 72.3159 190.848 72.721 192.437 73.5041C194.026 74.2872 195.445 75.4304 196.598 76.8578C197.752 78.2852 198.614 79.9641 199.127 81.7831C199.64 83.602 199.793 85.5193 199.576 87.4077L199.583 87.3424C199.746 90.1958 199.212 93.0452 198.037 95.6003C196.862 98.1553 195.088 100.325 192.895 101.887L192.835 101.928C194.935 105.279 195.917 109.315 195.618 113.361V113.304C195.878 116.51 195.193 119.723 193.662 122.475C192.132 125.226 189.837 127.372 187.112 128.6L187.022 128.633C188.685 131.894 189.461 135.606 189.259 139.331V139.282C189.426 142.075 188.898 144.864 187.731 147.356C186.564 149.847 184.801 151.948 182.63 153.435L182.57 153.476C184.095 157.213 184.674 161.327 184.246 165.391L184.254 165.285V166.82C184.146 168.832 183.668 170.799 182.848 172.604C182.029 174.409 180.883 176.015 179.481 177.326C178.08 178.637 176.45 179.625 174.69 180.232C172.93 180.839 171.076 181.052 169.238 180.859L169.291 180.867H136.155L136.043 180.875L135.923 180.867H135.931H91.7152C91.3336 180.867 90.9371 180.867 90.5181 180.932C90.0094 180.965 89.4707 181.014 88.9171 181.014H88.8049C88.049 181.018 87.2963 180.908 86.5679 180.687L86.6278 180.704L86.6128 180.671ZM41.6117 169.344C41.6122 168.657 41.7366 167.977 41.9779 167.342C42.2191 166.708 42.5725 166.132 43.0178 165.646C43.4631 165.161 43.9917 164.776 44.5732 164.514C45.1548 164.251 45.778 164.117 46.4073 164.117C47.0366 164.118 47.6596 164.254 48.2408 164.517C48.822 164.78 49.35 165.166 49.7946 165.652C50.2392 166.138 50.5918 166.715 50.8321 167.35C51.0725 167.985 51.1959 168.665 51.1954 169.352C51.1945 170.739 50.6886 172.069 49.7893 173.05C48.8899 174.03 47.6707 174.58 46.3998 174.579C45.1289 174.578 43.9105 174.026 43.0125 173.044C42.1146 172.062 41.6107 170.731 41.6117 169.344Z" fill="white"/>
</g>
<defs>
<clipPath id="clip0_1183_5752">
<rect width="202" height="196" fill="white"/>
</clipPath>
</defs>
</svg>
