<svg width="120" height="120" viewBox="0 0 120 120" fill="none" xmlns="http://www.w3.org/2000/svg">
<path d="M56.8113 93.6C47.8048 93.174 39.3084 89.2932 33.0871 82.7636C26.8658 76.234 23.3977 67.5576 23.4032 58.5366C23.4032 39.161 39.1419 23.4146 58.508 23.4146C77.3476 23.4146 92.6767 38.2244 93.5544 56.839L81.2677 53.1512C80.3114 49.0933 78.2892 45.3646 75.4102 42.3505C72.5312 39.3364 68.8999 37.1462 64.8915 36.0064C60.8832 34.8665 56.6433 34.8184 52.6101 35.867C48.577 36.9156 44.8969 39.0228 41.9503 41.9708C39.0037 44.9188 36.8975 48.6007 35.8495 52.6358C34.8014 56.6709 34.8495 60.9129 35.9888 64.9232C37.1281 68.9335 39.3172 72.5666 42.3298 75.447C45.3425 78.3274 49.0694 80.3505 53.1253 81.3073L56.8113 93.6ZM117.016 58.5366C117.016 60.2927 116.958 62.0488 116.782 63.8049L105.256 60.3512C105.314 59.7659 105.314 59.122 105.314 58.5366C105.314 32.6634 84.3686 11.7073 58.508 11.7073C32.6475 11.7073 11.7016 32.6634 11.7016 58.5366C11.7016 84.4098 32.6475 105.366 58.508 105.366C59.0931 105.366 59.7367 105.366 60.3218 105.307L63.7738 116.839C62.0185 117.015 60.2633 117.073 58.508 117.073C26.2116 117.073 0 90.8488 0 58.5366C0 26.2244 26.2116 0 58.508 0C90.8045 0 117.016 26.2244 117.016 58.5366ZM94.9585 83.4732L117.016 76.0976L58.508 58.5366L76.0605 117.073L83.4325 95.0049L108.415 120L120 108.41L94.9585 83.4732Z" fill="#24587D"/>
</svg>
