<svg width="200" height="200" viewBox="0 0 200 200" fill="none" xmlns="http://www.w3.org/2000/svg">
<path d="M193.543 99.975C193.609 97.7469 194.196 65.9 175.349 45.1687C174.512 43.3156 170.54 35.8469 157.721 26.7187C152.038 22.3111 146.002 18.3781 139.674 14.9594L139.649 14.9469C138.849 14.5187 123.218 6.25 104.246 6.25C102.805 6.25 101.38 6.33438 99.9711 6.43125V6.40625C85.5055 6.09062 71.1367 9.8125 62.4774 13.7219C54.7961 17.1906 46.268 23.0062 45.6524 23.4562C35.0149 29.4062 14.843 53.2844 13.2461 65.9375C6.79923 74.1781 1.41173 111.194 13.2586 133.741C21.5649 165.075 52.8336 180.756 55.3211 181.959C56.8336 182.925 73.8742 193.459 94.8086 193.459C95.6867 193.459 100.996 193.753 102.89 193.753C125.518 193.753 159.049 177.803 166.068 165.309C185.352 151.203 195.349 114.85 193.543 99.975ZM55.493 147.047C46.5274 132.544 41.418 113.594 40.3242 109.241C43.1617 104.987 57.1586 84.35 65.1336 78.1406C69.6492 78.9719 88.5055 82.4344 106.29 85.6531C108.524 91.4437 118.327 116.994 121.134 126.856C118.04 130.525 105.887 144.675 93.9211 155.756C81.218 155.816 59.6117 148.487 55.493 147.047ZM168.199 45.5625C168.162 46.9687 167.827 51.9687 165.434 57.7094C160.68 55.2812 148.734 50.0812 132.359 49.2031C129.88 45.5437 120.555 32.7844 105.827 23.9344C107.843 19.9906 110.649 15.1812 112.29 13.7156C112.821 13.5656 113.646 13.4281 114.902 13.4281C122.799 13.4281 136.443 18.6 137.63 19.0594C138.89 19.725 163.415 32.9312 168.199 45.5625ZM36.7899 106.287C26.093 104.462 19.7336 101.137 17.8336 100.012C13.8555 85.5844 17.0586 69.9906 17.5524 67.7562C21.4774 60.7375 32.6524 42.8469 40.0242 39.45C47.6649 37.8906 57.193 39.8281 61.0742 40.775C60.7086 45.8219 60.0055 59.9219 62.093 74.7187C53.6367 81.525 40.2524 101.116 36.7899 106.287ZM99.0149 11.0312C101.415 11.2094 104.937 11.7344 107.349 12.45C104.943 15.65 102.477 20.3937 101.312 22.7375C96.4055 23.5406 77.7711 27.1031 63.1524 36.5812C60.2055 35.8 51.3055 33.7156 42.8774 34.4344C44.9649 30.3937 48.0836 27.4062 48.418 27.1C49.5774 26.2687 71.8961 10.6531 99.0149 10.9906V11.0312ZM158.69 130.072C155.034 129.922 140.946 129.119 125.499 125.491C122.54 115.172 112.768 89.7281 110.534 83.9406C117.643 73.8077 124.86 63.7509 132.184 53.7719C149.959 54.7469 162.44 61.2312 164.855 62.5844C175.152 79.1437 177.412 96.0562 177.721 98.8812C172.252 115.9 161.437 127.359 158.69 130.072ZM11.4211 89.1219C11.6836 93.0781 12.318 97.2437 13.4649 101.362C12.4327 104.031 11.7174 106.812 11.3336 109.647C10.6802 102.819 10.7095 95.9436 11.4211 89.1219ZM41.5586 162.119C46.2711 157.578 52.0805 153.159 54.3336 151.491C59.4274 153.284 80.3461 160.356 93.6805 160.356C95.9524 163.403 103.38 172.944 112.487 180.237C106.818 185.784 98.6305 188.403 97.1836 188.837C71.7867 189.519 47.0524 175.244 41.5586 162.119ZM108.63 188.8C111.512 187.122 114.515 184.912 116.999 182.116C121.052 181.556 138.446 178.562 154.165 167.016C155.202 167.128 156.912 167.266 158.821 167.212C149.39 176.453 126.377 186.775 108.63 188.8ZM156.83 162.625C162.477 147.912 162.237 136.819 161.959 133.275C165.059 130.237 175.696 118.903 181.599 101.672C184.78 102.203 186.849 103.012 187.83 103.466C188.171 104.716 188.74 107.603 188.418 111.981C186.012 127.741 177.705 151.356 163.155 161.797C161.693 162.544 159.118 162.706 156.83 162.625Z" fill="#808080"/>
</svg>
