<svg width="200" height="200" viewBox="0 0 200 200" fill="none" xmlns="http://www.w3.org/2000/svg">
<path d="M158.668 40.4167C144.501 26.6667 127.751 18.75 108.335 16.6667V46.8333L183.335 90C181.001 70.8333 172.751 54.1667 158.668 40.4167ZM100.001 183.333C128.668 183.333 151.335 171.833 168.085 148.833L142.168 133.333L67.2513 176.667C77.668 181.083 88.668 183.333 100.001 183.333ZM108.335 95.0833L176.251 133.917C179.918 126.083 182.335 117.833 183.335 109.25L108.335 66.0833V95.0833ZM32.3346 148.417C37.8346 156 43.8346 162.167 50.418 166.667L125.335 124.167L100.001 109.583L32.3346 148.417ZM92.0013 16.6667C83.3346 17.4167 75.0013 19.6667 66.668 23.3333V109.583L92.0013 95.0833V16.6667ZM16.668 100C16.668 111.583 19.168 123.083 24.0846 134.333L50.0013 119V33.3333C27.7513 50 16.668 72.0833 16.668 100Z" fill="#808080"/>
</svg>
