<svg width="30" height="31" viewBox="0 0 30 31" fill="none" xmlns="http://www.w3.org/2000/svg">
<rect x="0.5" y="1.13171" width="29" height="29" stroke="black"/>
<path d="M5.49264 5.40381C5.1774 5.40381 4.76795 5.54971 4.1826 5.92922C4.41498 6.20355 4.66113 6.49682 5.14764 7.0575C5.48643 7.44791 5.82838 7.83621 6.08666 8.11734C6.08889 8.1198 6.08988 8.12057 6.09205 8.12297L7.90225 7.07227L7.04373 6.24328C6.38209 5.69227 5.95131 5.43082 5.55439 5.4058C5.53381 5.4045 5.51326 5.40383 5.49264 5.40381ZM12.5286 6.28752C12.477 6.28696 12.4253 6.28715 12.3737 6.28811C11.7608 6.29941 11.1901 6.41877 10.8068 6.60592L6.86566 8.8933C7.00922 8.92518 7.15189 8.96338 7.29264 9.01166C8.30484 9.35871 9.23168 10.0794 10.197 11.0449L22.879 23.5546L27.6238 20.9511L15.1483 7.15793C14.6411 6.69855 13.8305 6.4016 12.9983 6.31453C12.8422 6.29832 12.6854 6.28933 12.5285 6.28758L12.5286 6.28752ZM3.40916 6.65168C2.38125 7.86592 2.20389 8.83055 2.51115 9.99176C2.5517 10.1452 2.69027 10.3642 2.88457 10.6052C3.01694 10.4157 3.15542 10.2305 3.29976 10.0499C3.53355 9.75721 3.79107 9.51182 4.06646 9.31406L4.06025 9.30234L4.22244 9.20801C4.30108 9.15785 4.38181 9.11107 4.46443 9.06779L5.15982 8.66408C4.88721 8.36165 4.6176 8.05652 4.35105 7.74873C4.03538 7.38454 3.72137 7.01885 3.40916 6.65168ZM14.1959 7.43906L17.6186 11.0525C14.9183 10.7574 14.2911 11.826 13.5741 13.0564L10.2146 9.5816L14.1959 7.43906ZM6.07576 9.84445C6.03377 9.84349 5.99177 9.84353 5.94978 9.84457C5.54103 9.85512 5.11734 9.96516 4.64596 10.1894C4.46812 10.3236 4.29498 10.4938 4.12389 10.7081C2.61392 12.5985 2.33971 14.173 2.63068 15.5993C2.92166 17.0256 3.83396 18.333 4.85232 19.4931C5.63244 20.3819 6.54334 20.8989 7.69248 21.1297C8.84174 21.3605 10.2377 21.2883 11.9101 20.9261C13.8581 20.5042 15.7778 21.4194 17.5239 22.5471C19.0543 23.5354 20.4932 24.7203 21.6829 25.4738L22.1979 24.3643L9.45264 11.7919L9.45135 11.7906C8.54174 10.881 7.71902 10.2727 6.95045 10.0092C6.65631 9.90832 6.36891 9.85137 6.07576 9.84445ZM27.5844 22.1759L23.2806 24.5374L22.6666 25.8597L26.817 23.6091L27.5843 22.1759L27.5844 22.1759Z" fill="black"/>
</svg>
