<svg width="26" height="27" viewBox="0 0 26 27" fill="none" xmlns="http://www.w3.org/2000/svg">
<path d="M13.2529 22.6789C13.0816 22.8019 12.876 22.8681 12.6651 22.8681C12.4542 22.8681 12.2486 22.8019 12.0773 22.6789C7.00853 19.066 1.62912 11.6346 7.06731 6.26459C8.56026 4.79598 10.5708 3.97335 12.6651 3.97427C14.7643 3.97427 16.7786 4.79824 18.2628 6.26354C23.701 11.6335 18.3216 19.0639 13.2529 22.6789Z" stroke="black" stroke-width="1.57446" stroke-linecap="round" stroke-linejoin="round"/>
<path d="M12.6637 13.4211C13.2205 13.4211 13.7545 13.1999 14.1482 12.8062C14.5418 12.4125 14.763 11.8785 14.763 11.3218C14.763 10.765 14.5418 10.231 14.1482 9.83735C13.7545 9.44366 13.2205 9.22248 12.6637 9.22248C12.107 9.22248 11.573 9.44366 11.1793 9.83735C10.7856 10.231 10.5645 10.765 10.5645 11.3218C10.5645 11.8785 10.7856 12.4125 11.1793 12.8062C11.573 13.1999 12.107 13.4211 12.6637 13.4211Z" stroke="black" stroke-width="1.57446" stroke-linecap="round" stroke-linejoin="round"/>
</svg>
