<svg width="30" height="31" viewBox="0 0 30 31" fill="none" xmlns="http://www.w3.org/2000/svg">
<rect x="0.5" y="1.13171" width="29" height="29" stroke="black"/>
<path d="M15.5122 5.19921C16.3824 4.2516 17.5634 3.6472 18.841 3.49562C20.1185 3.34403 21.4082 3.65529 22.4759 4.37296L22.7009 4.53296L23.1047 4.83546C23.6557 5.24857 24.11 5.77683 24.436 6.38346C24.762 6.99008 24.9518 7.66049 24.9922 8.34796L24.9997 8.62546V26.8817C24.9993 27.2003 24.8773 27.5068 24.6586 27.7384C24.4399 27.9701 24.141 28.1095 23.8229 28.1282C23.5049 28.1468 23.1917 28.0434 22.9474 27.8389C22.7031 27.6344 22.5461 27.3443 22.5084 27.028L22.4997 26.8817V8.62546C22.499 8.31371 22.4335 8.0055 22.3074 7.72039C22.1813 7.43527 21.9974 7.17947 21.7672 6.96921L21.6047 6.83546L21.2009 6.53296C20.7399 6.18655 20.1854 5.98677 19.6094 5.95957C19.0334 5.93238 18.4625 6.07903 17.9709 6.38046L17.7797 6.50796L18.7272 7.05546C19.8358 7.6954 20.6568 8.73616 21.021 9.96334C21.3852 11.1905 21.2648 12.5106 20.6847 13.6517L20.5572 13.8855L19.9322 14.968C19.7792 15.2332 19.5342 15.433 19.2436 15.5295C18.9531 15.626 18.6372 15.6126 18.3559 15.4917L18.2247 15.4255L7.39969 9.17546C7.13421 9.02243 6.93419 8.7772 6.83763 8.48638C6.74107 8.19556 6.75471 7.8794 6.87594 7.59796L6.94219 7.46796L7.56719 6.38546C8.20733 5.27704 9.24819 4.45634 10.4753 4.0924C11.7025 3.72846 13.0225 3.84901 14.1634 4.42921L14.3972 4.55421L15.5122 5.19921ZM8.43719 19.878C8.72428 20.0437 8.93377 20.3168 9.01957 20.637C9.10536 20.9572 9.06045 21.2984 8.89469 21.5855L8.26969 22.668C8.10275 22.9527 7.82996 23.1599 7.51084 23.2443C7.19172 23.3286 6.85218 23.2834 6.56633 23.1183C6.28047 22.9533 6.07149 22.6818 5.98501 22.3633C5.89852 22.0447 5.94155 21.7049 6.10469 21.418L6.72969 20.3355C6.89546 20.0484 7.16848 19.8389 7.48869 19.7531C7.80891 19.6673 8.15009 19.7122 8.43719 19.878ZM11.2272 20.0455C11.3856 19.7672 11.6448 19.5604 11.9512 19.4676C12.2577 19.3748 12.5881 19.4031 12.8742 19.5468C13.1604 19.6904 13.3805 19.9384 13.4892 20.2396C13.5979 20.5408 13.5869 20.8722 13.4584 21.1655L13.3922 21.2955L12.7672 22.378C12.6069 22.6523 12.3482 22.8552 12.0436 22.9456C11.739 23.036 11.4114 23.007 11.1275 22.8645C10.8435 22.722 10.6244 22.4768 10.5148 22.1786C10.4052 21.8804 10.4132 21.5517 10.5372 21.2592L10.6022 21.128L11.2272 20.0455ZM6.43969 15.838C6.72678 16.0037 6.93627 16.2768 7.02207 16.597C7.10786 16.9172 7.06295 17.2584 6.89719 17.5455L6.27219 18.628C6.19071 18.7713 6.0817 18.897 5.95141 18.998C5.82113 19.0991 5.67215 19.1733 5.51306 19.2165C5.35397 19.2597 5.1879 19.271 5.02443 19.2497C4.86095 19.2285 4.7033 19.1751 4.56053 19.0927C4.41777 19.0102 4.29272 18.9004 4.19259 18.7694C4.09245 18.6385 4.01921 18.489 3.97707 18.3296C3.93493 18.1703 3.92474 18.0041 3.94707 17.8408C3.9694 17.6775 4.02382 17.5202 4.10719 17.378L4.73219 16.2955C4.89796 16.0084 5.17098 15.7989 5.49119 15.7131C5.81141 15.6273 6.15259 15.6722 6.43969 15.838ZM10.9372 15.548C11.2243 15.7137 11.4338 15.9867 11.5196 16.307C11.6054 16.6272 11.5604 16.9684 11.3947 17.2555L10.7697 18.338C10.6028 18.6227 10.33 18.8299 10.0108 18.9143C9.69172 18.9986 9.35218 18.9534 9.06633 18.7883C8.78047 18.6233 8.57149 18.3518 8.48501 18.0333C8.39852 17.7147 8.44155 17.3749 8.60469 17.088L9.22969 16.0055C9.39546 15.7184 9.66848 15.5089 9.98869 15.4231C10.3089 15.3373 10.6501 15.3822 10.9372 15.548ZM13.7272 15.7155C13.8856 15.4372 14.1448 15.2304 14.4512 15.1376C14.7577 15.0448 15.0881 15.0731 15.3742 15.2168C15.6604 15.3604 15.8805 15.6084 15.9892 15.9096C16.0979 16.2108 16.0869 16.5422 15.9584 16.8355L15.8922 16.9655L15.2672 18.048C15.1074 18.3234 14.8484 18.5275 14.5432 18.6185C14.238 18.7095 13.9096 18.6806 13.625 18.5377C13.3404 18.3947 13.1211 18.1486 13.0118 17.8494C12.9026 17.5502 12.9117 17.2207 13.0372 16.928L13.1022 16.798L13.7272 15.7155ZM8.93969 11.508C9.22678 11.6737 9.43627 11.9467 9.52207 12.267C9.60786 12.5872 9.56295 12.9284 9.39719 13.2155L8.77219 14.298C8.69071 14.4413 8.5817 14.567 8.45141 14.668C8.32113 14.7691 8.17215 14.8433 8.01306 14.8865C7.85397 14.9297 7.6879 14.941 7.52443 14.9197C7.36095 14.8985 7.2033 14.8451 7.06053 14.7627C6.91777 14.6802 6.79272 14.5704 6.69258 14.4394C6.59245 14.3085 6.5192 14.159 6.47707 13.9996C6.43493 13.8403 6.42474 13.6741 6.44707 13.5108C6.4694 13.3475 6.52382 13.1902 6.60719 13.048L7.23219 11.9655C7.39796 11.6784 7.67098 11.4689 7.99119 11.3831C8.31141 11.2973 8.65259 11.3422 8.93969 11.508Z" fill="black"/>
</svg>
