<svg width="73" height="105" viewBox="0 0 73 105" fill="none" xmlns="http://www.w3.org/2000/svg">
<path fill-rule="evenodd" clip-rule="evenodd" d="M70 0H2V70.125C2 88.9027 17.2223 104.125 36 104.125C54.7777 104.125 70 88.9027 70 70.125V0Z" fill="#3BC52D"/>
<g clip-path="url(#clip0_490_5541)">
<path d="M26.7929 58.2222L22.5947 51.0265L14.6402 49.2275L15.4135 40.9074L10 34.6111L15.4135 28.3148L14.6402 19.9947L22.5947 18.1958L26.7929 11L34.3056 14.2606L41.8182 11L46.0164 18.1958L53.971 19.9947L53.1976 28.3148L58.6111 34.6111L53.1976 40.9074L53.971 49.2275L46.0164 51.0265L41.8182 58.2222L34.3056 54.9616L26.7929 58.2222ZM31.9855 42.5939L44.4697 29.8889L41.3763 26.6283L31.9855 36.1852L27.2348 31.463L24.1414 34.6111L31.9855 42.5939Z" fill="white"/>
</g>
<path d="M11.784 73.084H15.432V73.828L14.412 73.984L16.2 79.36L16.548 80.572L16.848 79.348L18.528 73.984L17.58 73.828V73.084H20.484V73.828L19.716 73.984L16.956 82.084H15.528L12.504 73.984L11.784 73.828V73.084ZM23.8023 82.132C22.7463 82.132 21.9583 81.824 21.4383 81.208C20.9263 80.584 20.6703 79.736 20.6703 78.664C20.6703 77.944 20.8023 77.32 21.0663 76.792C21.3383 76.264 21.7183 75.86 22.2063 75.58C22.6943 75.3 23.2583 75.16 23.8983 75.16C24.6983 75.16 25.3143 75.372 25.7463 75.796C26.1783 76.212 26.4023 76.808 26.4183 77.584C26.4183 78.112 26.3863 78.504 26.3223 78.76H22.4223C22.4543 79.488 22.6263 80.056 22.9383 80.464C23.2503 80.864 23.6943 81.064 24.2703 81.064C24.5823 81.064 24.9023 81.012 25.2303 80.908C25.5663 80.804 25.8303 80.68 26.0223 80.536L26.3223 81.196C26.1063 81.428 25.7543 81.644 25.2663 81.844C24.7863 82.036 24.2983 82.132 23.8023 82.132ZM24.7383 78.04C24.7543 77.816 24.7623 77.644 24.7623 77.524C24.7623 76.46 24.4063 75.928 23.6943 75.928C23.3023 75.928 22.9983 76.084 22.7823 76.396C22.5663 76.708 22.4463 77.256 22.4223 78.04H24.7383ZM27.3759 81.292L28.1679 81.196V76.468L27.3999 76.252V75.424L29.2599 75.172H29.2959L29.5959 75.412V75.676L29.5599 76.648H29.5959C29.6519 76.488 29.7839 76.292 29.9919 76.06C30.1999 75.82 30.4599 75.612 30.7719 75.436C31.0919 75.252 31.4359 75.16 31.8039 75.16C31.9799 75.16 32.1319 75.184 32.2599 75.232V77.032C32.0199 76.864 31.7279 76.78 31.3839 76.78C30.7999 76.78 30.2919 76.936 29.8599 77.248V81.184L31.2519 81.292V82H27.3759V81.292ZM34.4524 74.236C34.1644 74.236 33.9364 74.152 33.7684 73.984C33.6004 73.816 33.5164 73.6 33.5164 73.336C33.5164 73.032 33.6124 72.78 33.8044 72.58C33.9964 72.38 34.2524 72.28 34.5724 72.28C34.8924 72.28 35.1364 72.368 35.3044 72.544C35.4724 72.712 35.5564 72.924 35.5564 73.18C35.5564 73.5 35.4604 73.756 35.2684 73.948C35.0764 74.14 34.8084 74.236 34.4644 74.236H34.4524ZM33.8164 76.468L32.9644 76.24V75.436L35.1604 75.172H35.1844L35.5204 75.412V81.184L36.3244 81.28V82H32.9764V81.28L33.8164 81.172V76.468ZM38.0125 76.264H37.0045V75.592L38.0125 75.352V74.824C38.0125 74.304 38.1485 73.828 38.4205 73.396C38.7005 72.964 39.0725 72.624 39.5365 72.376C40.0005 72.12 40.4925 71.992 41.0125 71.992C41.2845 71.992 41.5405 72.032 41.7805 72.112V73.648C41.7005 73.568 41.5405 73.488 41.3005 73.408C41.0685 73.328 40.8245 73.288 40.5685 73.288C40.2565 73.288 40.0325 73.368 39.8965 73.528C39.7685 73.68 39.7045 73.944 39.7045 74.32V75.34H41.2285V76.264H39.7045V81.184L40.9645 81.28V82H37.0645V81.28L38.0125 81.172V76.264ZM43.5085 74.236C43.2205 74.236 42.9925 74.152 42.8245 73.984C42.6565 73.816 42.5725 73.6 42.5725 73.336C42.5725 73.032 42.6685 72.78 42.8605 72.58C43.0525 72.38 43.3085 72.28 43.6285 72.28C43.9485 72.28 44.1925 72.368 44.3605 72.544C44.5285 72.712 44.6125 72.924 44.6125 73.18C44.6125 73.5 44.5165 73.756 44.3245 73.948C44.1325 74.14 43.8645 74.236 43.5205 74.236H43.5085ZM42.8725 76.468L42.0205 76.24V75.436L44.2165 75.172H44.2405L44.5765 75.412V81.184L45.3805 81.28V82H42.0325V81.28L42.8725 81.172V76.468ZM49.2671 82.132C48.2111 82.132 47.4231 81.824 46.9031 81.208C46.3911 80.584 46.1351 79.736 46.1351 78.664C46.1351 77.944 46.2671 77.32 46.5311 76.792C46.8031 76.264 47.1831 75.86 47.6711 75.58C48.1591 75.3 48.7231 75.16 49.3631 75.16C50.1631 75.16 50.7791 75.372 51.2111 75.796C51.6431 76.212 51.8671 76.808 51.8831 77.584C51.8831 78.112 51.8511 78.504 51.7871 78.76H47.8871C47.9191 79.488 48.0911 80.056 48.4031 80.464C48.7151 80.864 49.1591 81.064 49.7351 81.064C50.0471 81.064 50.3671 81.012 50.6951 80.908C51.0311 80.804 51.2951 80.68 51.4871 80.536L51.7871 81.196C51.5711 81.428 51.2191 81.644 50.7311 81.844C50.2511 82.036 49.7631 82.132 49.2671 82.132ZM50.2031 78.04C50.2191 77.816 50.2271 77.644 50.2271 77.524C50.2271 76.46 49.8711 75.928 49.1591 75.928C48.7671 75.928 48.4631 76.084 48.2471 76.396C48.0311 76.708 47.9111 77.256 47.8871 78.04H50.2031ZM55.3488 82.132C54.8528 82.132 54.4088 82.016 54.0168 81.784C53.6248 81.544 53.3128 81.176 53.0808 80.68C52.8488 80.184 52.7328 79.564 52.7328 78.82C52.7328 78.148 52.8688 77.536 53.1408 76.984C53.4208 76.424 53.8288 75.98 54.3648 75.652C54.9008 75.324 55.5448 75.16 56.2968 75.16C56.6008 75.16 56.8888 75.192 57.1608 75.256V73.228L55.9848 73.06V72.4L58.4568 72.16H58.4928L58.8288 72.412V81.268H59.4768V81.952C58.9008 82.072 58.4248 82.132 58.0488 82.132C57.7928 82.132 57.6088 82.088 57.4968 82C57.3928 81.92 57.3408 81.756 57.3408 81.508V81.172C57.1328 81.452 56.8488 81.684 56.4888 81.868C56.1288 82.044 55.7488 82.132 55.3488 82.132ZM55.9728 81.136C56.2368 81.136 56.4688 81.084 56.6688 80.98C56.8768 80.868 57.0408 80.736 57.1608 80.584V76.216C57.1048 76.136 56.9848 76.068 56.8008 76.012C56.6248 75.956 56.4328 75.928 56.2248 75.928C55.7128 75.928 55.3008 76.152 54.9888 76.6C54.6848 77.04 54.5328 77.748 54.5328 78.724C54.5328 79.54 54.6648 80.148 54.9288 80.548C55.1928 80.94 55.5408 81.136 55.9728 81.136Z" fill="white"/>
<defs>
<clipPath id="clip0_490_5541">
<rect width="50" height="50" fill="white" transform="translate(9 8)"/>
</clipPath>
</defs>
</svg>
