<svg width="30" height="31" viewBox="0 0 30 31" fill="none" xmlns="http://www.w3.org/2000/svg">
<rect x="0.5" y="1.13171" width="29" height="29" stroke="black"/>
<path d="M15 26.8817C14.125 26.8817 13.3854 26.5796 12.7812 25.9755C12.1771 25.3713 11.875 24.6317 11.875 23.7567C11.875 22.8817 12.1771 22.1421 12.7812 21.538C13.3854 20.9338 14.125 20.6317 15 20.6317C15.875 20.6317 16.6146 20.9338 17.2188 21.538C17.8229 22.1421 18.125 22.8817 18.125 23.7567C18.125 24.6317 17.8229 25.3713 17.2188 25.9755C16.6146 26.5796 15.875 26.8817 15 26.8817ZM7.9375 19.8192L5.3125 17.1317C6.54167 15.9025 7.98458 14.9288 9.64125 14.2105C11.2979 13.4921 13.0842 13.1325 15 13.1317C16.9158 13.1309 18.7025 13.4955 20.36 14.2255C22.0175 14.9555 23.46 15.945 24.6875 17.1942L22.0625 19.8192C21.1458 18.9025 20.0833 18.1838 18.875 17.663C17.6667 17.1421 16.375 16.8817 15 16.8817C13.625 16.8817 12.3333 17.1421 11.125 17.663C9.91667 18.1838 8.85417 18.9025 7.9375 19.8192ZM2.625 14.5067L0 11.8817C1.91667 9.92338 4.15625 8.39213 6.71875 7.28796C9.28125 6.1838 12.0417 5.63171 15 5.63171C17.9583 5.63171 20.7188 6.1838 23.2812 7.28796C25.8438 8.39213 28.0833 9.92338 30 11.8817L27.375 14.5067C25.7708 12.9025 23.9117 11.6475 21.7975 10.7417C19.6833 9.83588 17.4175 9.38255 15 9.38171C12.5825 9.38088 10.3171 9.83421 8.20375 10.7417C6.09042 11.6492 4.23083 12.9042 2.625 14.5067Z" fill="black"/>
</svg>
